<svg width="40" height="40" viewBox="0 0 40 40" fill="none" xmlns="http://www.w3.org/2000/svg">
<path d="M13.125 11.875L13.6 5.43751C13.6474 4.80749 13.9316 4.21877 14.3954 3.78975C14.8592 3.36073 15.4682 3.12323 16.1 3.12501H28.9313C29.5631 3.12323 30.1721 3.36073 30.6359 3.78975C31.0997 4.21877 31.3839 4.80749 31.4313 5.43751L32.1125 14.6313C32.1633 15.3182 32.0716 16.0082 31.8432 16.6581C31.6148 17.308 31.2545 17.9036 30.7851 18.4077C30.3156 18.9117 29.7471 19.3134 29.1151 19.5874C28.4831 19.8614 27.8013 20.0019 27.1125 20H17.8875C17.1775 20.0011 16.4753 19.851 15.8278 19.5597C15.1803 19.2683 14.6023 18.8424 14.1322 18.3102C13.6621 17.778 13.3108 17.1518 13.1015 16.4733C12.8923 15.7948 12.83 15.0795 12.9188 14.375" fill="url(#paint0_linear_1064_1079)"/>
<path d="M33.125 37.5C32.9685 37.5006 32.8175 37.4426 32.7018 37.3373C32.5861 37.232 32.5141 37.0871 32.5 36.9313L31.3062 24.375H13.6938L12.5 36.9313C12.4929 37.0135 12.4697 37.0934 12.4315 37.1666C12.3934 37.2398 12.3412 37.3047 12.2778 37.3575C12.2145 37.4104 12.1413 37.4502 12.0625 37.4747C11.9837 37.4991 11.9009 37.5077 11.8188 37.5C11.7366 37.4929 11.6566 37.4697 11.5834 37.4315C11.5102 37.3934 11.4453 37.3412 11.3925 37.2778C11.3396 37.2145 11.2998 37.1413 11.2753 37.0625C11.2509 36.9837 11.2423 36.9009 11.25 36.8188L12.5 23.6938C12.5141 23.5379 12.5861 23.3931 12.7018 23.2877C12.8175 23.1824 12.9685 23.1244 13.125 23.125H31.875C32.0315 23.1244 32.1825 23.1824 32.2982 23.2877C32.4139 23.3931 32.4859 23.5379 32.5 23.6938L33.75 36.8188C33.7578 36.9054 33.7475 36.9928 33.7196 37.0752C33.6917 37.1577 33.6469 37.2334 33.5881 37.2975C33.5292 37.3617 33.4577 37.4128 33.3779 37.4477C33.2982 37.4825 33.212 37.5004 33.125 37.5Z" fill="#B9C3CD"/>
<path d="M10 22.5C9.00544 22.5 8.05161 22.1049 7.34835 21.4017C6.64509 20.6984 6.25 19.7446 6.25 18.75V14.375C6.25 14.2092 6.31585 14.0503 6.43306 13.9331C6.55027 13.8158 6.70924 13.75 6.875 13.75C7.04076 13.75 7.19973 13.8158 7.31694 13.9331C7.43415 14.0503 7.5 14.2092 7.5 14.375V18.75C7.5 19.413 7.76339 20.0489 8.23223 20.5178C8.70107 20.9866 9.33696 21.25 10 21.25C10.1658 21.25 10.3247 21.3158 10.4419 21.4331C10.5592 21.5503 10.625 21.7092 10.625 21.875C10.625 22.0408 10.5592 22.1997 10.4419 22.3169C10.3247 22.4342 10.1658 22.5 10 22.5Z" fill="#CDD8E1"/>
<path d="M33.125 20H11.875C10.8395 20 10 20.8395 10 21.875V22.5C10 23.5355 10.8395 24.375 11.875 24.375H33.125C34.1605 24.375 35 23.5355 35 22.5V21.875C35 20.8395 34.1605 20 33.125 20Z" fill="url(#paint1_linear_1064_1079)"/>
<path d="M25 14.375H6.25C5.91848 14.375 5.60054 14.2433 5.36612 14.0089C5.1317 13.7745 5 13.4565 5 13.125C5 12.7935 5.1317 12.4755 5.36612 12.2411C5.60054 12.0067 5.91848 11.875 6.25 11.875H25C25.3315 11.875 25.6495 12.0067 25.8839 12.2411C26.1183 12.4755 26.25 12.7935 26.25 13.125C26.25 13.4565 26.1183 13.7745 25.8839 14.0089C25.6495 14.2433 25.3315 14.375 25 14.375Z" fill="url(#paint2_linear_1064_1079)"/>
<defs>
<linearGradient id="paint0_linear_1064_1079" x1="22.5063" y1="20" x2="22.5063" y2="3.12501" gradientUnits="userSpaceOnUse">
<stop stop-color="#10BDA5"/>
<stop offset="1" stop-color="#8BD870"/>
</linearGradient>
<linearGradient id="paint1_linear_1064_1079" x1="22.5" y1="24.375" x2="22.5" y2="20" gradientUnits="userSpaceOnUse">
<stop stop-color="#10BDA5"/>
<stop offset="1" stop-color="#8BD870"/>
</linearGradient>
<linearGradient id="paint2_linear_1064_1079" x1="5" y1="13.125" x2="26.25" y2="13.125" gradientUnits="userSpaceOnUse">
<stop stop-color="#FFA87C"/>
<stop offset="1" stop-color="#FFB369"/>
</linearGradient>
</defs>
</svg>
