<svg width="40" height="40" viewBox="0 0 40 40" fill="none" xmlns="http://www.w3.org/2000/svg">
<g clip-path="url(#clip0_1064_1075)">
<path d="M28.6045 15.0603L18.771 16.1781C17.5637 23.1706 17.0991 30.386 17.23 34.9046C17.2626 36.0327 18.1841 36.9311 19.3127 36.9311H22.5869C23.8751 36.9311 25.0159 36.1036 25.4201 34.8805C26.1335 32.7211 27.0094 29.6502 27.8981 26.3707C28.0932 25.6505 29.1155 25.6505 29.3107 26.3707C30.1992 29.6503 31.0751 32.7212 31.7885 34.8805C32.1927 36.1037 33.3335 36.9312 34.6218 36.9312H37.8959C39.0245 36.9312 39.946 36.0328 39.9786 34.9047C40.1095 30.3861 39.645 23.1707 38.4377 16.1782L28.6041 15.0604H28.6045V15.0603Z" fill="url(#paint0_linear_1064_1075)"/>
<path d="M28.6041 15.0603L28.6043 15.0604L28.6044 15.0603H28.6041Z" fill="#3881EC"/>
<path d="M25.5553 25.1243C26.4332 25.4791 27.4092 24.8751 27.4693 23.9301C27.4771 23.8091 27.481 23.6872 27.481 23.5642V17.1026C28.4514 17.0006 29.3508 16.5731 30.0503 15.8736L30.633 15.2909L28.6042 15.0603L24.6921 15.505V23.5642C24.6921 23.6258 24.6902 23.687 24.6864 23.7476C24.6492 24.3456 24.9998 24.8997 25.5553 25.1243Z" fill="#3881EC"/>
<path d="M28.6045 15.1047L28.4355 15.0205L28.7732 15.0204L28.6045 15.1047Z" fill="url(#paint1_linear_1064_1075)"/>
<path d="M25.573 15.3848L29.7108 16.1781H38.4377C38.3249 15.5246 38.2057 14.873 38.0798 14.2258C37.8821 13.2092 36.9907 12.4758 35.9551 12.4758H21.2536C20.2179 12.4758 19.3266 13.2091 19.1288 14.2258C19.0029 14.873 18.8838 15.5245 18.771 16.1781L25.573 15.3848Z" fill="url(#paint2_linear_1064_1075)"/>
<path d="M30.0503 15.8736L32.7214 13.2026C32.9461 12.9779 33.1395 12.7336 33.3037 12.476H21.2536C20.2179 12.476 19.3266 13.2093 19.1288 14.2259C19.0029 14.8731 18.8838 15.5247 18.771 16.1781H29.7109C29.8283 16.083 29.942 15.982 30.0503 15.8736Z" fill="#424E5E"/>
<path d="M30.7494 9.1261L27.6606 6.03742C25.76 4.1367 23.1821 3.06897 20.4941 3.06897H20.3583L15.5927 4.51901L10.827 3.06897H10.6912C8.00328 3.06897 5.42535 4.13678 3.52471 6.03742L0.435867 9.1261C-0.145248 9.70722 -0.145248 10.6494 0.435867 11.2306L3.10694 13.9016C3.68806 14.4828 4.63029 14.4828 5.2114 13.9016L6.49308 12.62V23.5642C6.49308 25.1711 7.79571 26.4737 9.40264 26.4737H21.7826C23.3895 26.4737 24.6921 25.171 24.6921 23.5642V12.62L25.9738 13.9016C26.5549 14.4828 27.4971 14.4828 28.0783 13.9016L30.7493 11.2306C31.3305 10.6494 31.3305 9.7073 30.7494 9.1261Z" fill="url(#paint3_linear_1064_1075)"/>
<path d="M10.8269 3.06885C10.8269 5.70088 12.9606 7.83451 15.5926 7.83451C18.2246 7.83451 20.3583 5.70088 20.3583 3.06885H10.8269Z" fill="url(#paint4_linear_1064_1075)"/>
<path d="M37.1322 22.1767C37.0574 22.1767 36.9813 22.166 36.9059 22.1438C35.3294 21.6775 34.0519 20.3288 33.4885 18.5356C33.3567 18.1158 33.59 17.6685 34.0099 17.5367C34.4297 17.4046 34.877 17.6383 35.0089 18.058C35.4129 19.3441 36.291 20.3001 37.3577 20.6156C37.7797 20.7403 38.0206 21.1836 37.8959 21.6057C37.7935 21.9522 37.4761 22.1767 37.1322 22.1767Z" fill="#3881EC"/>
</g>
<defs>
<linearGradient id="paint0_linear_1064_1075" x1="28.6043" y1="18.3094" x2="28.6043" y2="39.3341" gradientUnits="userSpaceOnUse">
<stop stop-color="#5C8DF1"/>
<stop offset="1" stop-color="#55ACF8"/>
</linearGradient>
<linearGradient id="paint1_linear_1064_1075" x1="28.6044" y1="15.1048" x2="28.6044" y2="15.0204" gradientUnits="userSpaceOnUse">
<stop stop-color="#EC6F80"/>
<stop offset="1" stop-color="#ECA0AA"/>
</linearGradient>
<linearGradient id="paint2_linear_1064_1075" x1="27.424" y1="14.327" x2="38.0221" y2="14.327" gradientUnits="userSpaceOnUse">
<stop stop-color="#4E5660"/>
<stop offset="1" stop-color="#64768D"/>
</linearGradient>
<linearGradient id="paint3_linear_1064_1075" x1="15.5926" y1="26.0424" x2="15.5926" y2="-0.279237" gradientUnits="userSpaceOnUse">
<stop stop-color="#EC6F80"/>
<stop offset="1" stop-color="#ECA0AA"/>
</linearGradient>
<linearGradient id="paint4_linear_1064_1075" x1="15.5926" y1="7.7467" x2="15.5926" y2="2.38709" gradientUnits="userSpaceOnUse">
<stop stop-color="#DD5C6E"/>
<stop offset="1" stop-color="#EC8290"/>
</linearGradient>
<clipPath id="clip0_1064_1075">
<rect width="40" height="40" fill="white"/>
</clipPath>
</defs>
</svg>
