<svg width="40" height="40" viewBox="0 0 40 40" fill="none" xmlns="http://www.w3.org/2000/svg">
<g clip-path="url(#clip0_1125_1001)">
<path d="M39.6566 17.9996C39.1989 17.5419 38.4572 17.5419 37.9995 17.9996C36.7292 19.271 34.9714 20 33.1792 20H32.7443L32.2342 16.4844L19.9882 14.1406L7.74221 16.4844L7.25041 20H6.82065C5.02854 20 3.27072 19.271 2.00041 17.9996C1.54268 17.5419 0.801035 17.5419 0.343301 17.9996C-0.114434 18.4563 -0.114434 19.199 0.343301 19.6567C2.04846 21.3641 4.41049 22.3438 6.82065 22.3438H33.1793C35.5895 22.3438 37.9515 21.3641 39.6567 19.6566C40.1144 19.1989 40.1144 18.4562 39.6566 17.9996ZM5.93744 27.0312H3.59369C2.94596 27.0312 2.42182 27.5554 2.42182 28.2031C2.42182 28.8509 2.94596 29.375 3.59369 29.375H5.93744C6.58518 29.375 7.10932 28.8509 7.10932 28.2031C7.10932 27.5554 6.58518 27.0312 5.93744 27.0312ZM22.3437 27.0312H17.6562C17.0085 27.0312 16.4843 27.5554 16.4843 28.2031C16.4843 28.8509 17.0085 29.375 17.6562 29.375H22.3437C22.9914 29.375 23.5156 28.8509 23.5156 28.2031C23.5156 27.5554 22.9914 27.0312 22.3437 27.0312ZM36.4062 27.0312H34.0624C33.4147 27.0312 32.8906 27.5554 32.8906 28.2031C32.8906 28.8509 33.4147 29.375 34.0624 29.375H36.4062C37.0539 29.375 37.5781 28.8509 37.5781 28.2031C37.5781 27.5554 37.0539 27.0312 36.4062 27.0312Z" fill="url(#paint0_linear_1125_1001)"/>
<path d="M30.9688 7.64836C30.6406 5.32805 28.625 3.59375 26.2812 3.59375C23.3281 3.59375 22.4609 5.46875 21.8984 6.7343C21.3595 7.90617 21.1249 8.32797 20 8.32797C18.8751 8.32797 18.6406 7.90617 18.1016 6.7343C17.5391 5.46867 16.672 3.59375 13.7188 3.59375C11.375 3.59375 9.35938 5.32813 9.00781 7.64836L7.74227 16.4844H32.2344L30.9688 7.64836ZM17.6562 24.6875H5.9375C5.28977 24.6875 4.76562 25.2116 4.76562 25.8594V29.375C4.76562 33.2523 7.91961 36.4062 11.7969 36.4062C15.6741 36.4062 18.8281 33.2523 18.8281 29.375V25.8594C18.8281 25.2116 18.304 24.6875 17.6562 24.6875ZM34.0625 24.6875H22.3438C21.696 24.6875 21.1719 25.2116 21.1719 25.8594V29.375C21.1719 33.2523 24.3259 36.4062 28.2031 36.4062C32.0804 36.4062 35.2344 33.2523 35.2344 29.375V25.8594C35.2344 25.2116 34.7102 24.6875 34.0625 24.6875Z" fill="url(#paint1_linear_1125_1001)"/>
</g>
<defs>
<linearGradient id="paint0_linear_1125_1001" x1="19.9999" y1="29.375" x2="19.9999" y2="14.1406" gradientUnits="userSpaceOnUse">
<stop stop-color="#DBE1D9"/>
<stop offset="1" stop-color="#BBF8D4"/>
</linearGradient>
<linearGradient id="paint1_linear_1125_1001" x1="20" y1="36.4062" x2="20" y2="3.59375" gradientUnits="userSpaceOnUse">
<stop stop-color="#10BDA5"/>
<stop offset="1" stop-color="#8BD870"/>
</linearGradient>
<clipPath id="clip0_1125_1001">
<rect width="40" height="40" fill="white"/>
</clipPath>
</defs>
</svg>
