<svg width="40" height="40" viewBox="0 0 40 40" fill="none" xmlns="http://www.w3.org/2000/svg">
<g clip-path="url(#clip0_1125_997)">
<path fill-rule="evenodd" clip-rule="evenodd" d="M25.8231 33.2279H25.2841V28.3304C25.2841 24.1359 28.7053 20.7147 32.9233 20.7147C34.4933 20.7147 35.993 21.1833 37.2818 22.0504C37.3052 22.0972 37.5161 22.2378 37.8207 22.4722C37.1646 28.5178 32.0328 33.2279 25.8231 33.2279ZM23.3158 12.935H16.6608C15.5829 12.935 14.7159 12.0679 14.7159 10.9666V10.5917C14.7159 9.49031 15.5829 8.6233 16.6608 8.6233H23.3158C24.4171 8.6233 25.2841 9.49031 25.2841 10.5917V10.9666C25.2841 12.0679 24.4171 12.935 23.3158 12.935ZM37.7504 11.2478H26.0574C26.0574 11.1775 26.0574 11.0838 26.0574 10.9666V10.5917C26.0574 9.06852 24.8389 7.85001 23.3158 7.85001H16.6608C15.1611 7.85001 13.9192 9.06852 13.9192 10.5917V10.9666C13.9192 11.0838 13.9426 11.1775 13.9426 11.2478H2.24956C1.00762 11.2478 0 10.2402 0 9.02166C0 7.77971 1.00762 6.77209 2.24956 6.77209H37.7504C38.9924 6.77209 40 7.77971 40 9.02166C40 9.60748 39.7657 10.1699 39.3439 10.5917C38.8987 11.0135 38.3363 11.2478 37.7504 11.2478ZM25.2841 24.792V12.8881C25.5185 12.6538 25.7293 12.3491 25.8465 12.0445H37.7504H37.891V21.1365V21.5583C37.7973 21.488 37.727 21.4411 37.727 21.4177C36.2976 20.4335 34.6573 19.918 32.9233 19.918C29.5489 19.918 26.6198 21.9332 25.2841 24.792ZM24.5108 33.2279H15.4892V28.3538V28.3304V13.4505C15.8407 13.6145 16.239 13.7082 16.6608 13.7082H23.3158C23.7376 13.7082 24.1359 13.6145 24.5108 13.4505V28.3304V33.2279ZM14.7159 33.2279H14.1769C7.96719 33.2279 2.83538 28.5178 2.15583 22.4722C2.46046 22.2613 2.67135 22.0972 2.71822 22.0738C4.00703 21.1833 5.50674 20.7147 7.07674 20.7147C11.2712 20.7147 14.7159 24.1359 14.7159 28.3538V33.2279ZM2.10896 21.5583C2.10896 21.4177 2.08553 21.2771 2.08553 21.1365V12.0445H2.24956H14.1301C14.2707 12.3491 14.4581 12.6538 14.7159 12.8881V24.792C13.3568 21.9332 10.4511 19.918 7.07674 19.918C5.34271 19.918 3.67897 20.4335 2.27299 21.4177C2.24956 21.4411 2.17926 21.488 2.10896 21.5583Z" fill="url(#paint0_linear_1125_997)"/>
</g>
<defs>
<linearGradient id="paint0_linear_1125_997" x1="6.33732" y1="1.96631" x2="33.6548" y2="38.0255" gradientUnits="userSpaceOnUse">
<stop stop-color="#F77080"/>
<stop offset="1" stop-color="#ED8B98"/>
</linearGradient>
<clipPath id="clip0_1125_997">
<rect width="40" height="40" fill="white"/>
</clipPath>
</defs>
</svg>
