<svg width="40" height="40" viewBox="0 0 40 40" fill="none" xmlns="http://www.w3.org/2000/svg">
<g clip-path="url(#clip0_1064_1071)">
<path d="M28.9686 10.9696V1.46936H26.7509C26.7435 2.84546 23.8051 4.24243 20 4.24243C16.1949 4.24243 13.2565 2.84538 13.2491 1.46936H11.0314V10.9696H28.9686Z" fill="url(#paint0_linear_1064_1071)"/>
<path d="M20 40C22.4186 40 24.5884 38.9033 25.965 37.9066C26.8127 37.2929 27.9415 37.2271 28.8435 37.7576C31.0735 39.0692 33.7702 38.4826 35.7033 36.9956C37.1124 35.9117 37.3935 33.8905 36.3616 32.4429C33.9198 29.0172 30.8702 21.5041 32.4737 15.4432C34.1137 9.24438 33.3233 5.89251 32.1916 1.45363C31.9736 0.598725 31.2035 0 30.3212 0H28.2977C27.3006 0 26.5074 0.835538 26.5578 1.83124C26.9028 8.65386 22.9386 8.41809 20.0001 8.41809C17.0616 8.41809 13.0973 8.65394 13.4424 1.83124C13.4927 0.835538 12.6994 0 11.7024 0H9.67888C8.79657 0 8.02645 0.598725 7.80844 1.45363C6.67665 5.89251 5.88637 9.24438 7.52637 15.4432C9.12988 21.504 6.08031 29.0172 3.63848 32.4429C2.60661 33.8905 2.88764 35.9117 4.29673 36.9956C6.22988 38.4826 8.92653 39.0691 11.1566 37.7576C12.0586 37.2271 13.1874 37.293 14.0351 37.9066C15.4116 38.9033 17.5814 40 20 40Z" fill="url(#paint1_linear_1064_1071)"/>
<path d="M28.2541 24.3959C25.6216 22.1476 20 20.9836 20 20.9836H7.87122C7.68381 22.7981 7.24922 24.5996 6.6842 26.2638C6.74946 26.2833 6.81536 26.3017 6.88213 26.3184C10.477 27.2201 14.8904 27.6773 20 27.6773C23.1514 27.6773 26.0375 27.5032 28.6304 27.1583C29.4391 27.0507 29.9797 26.2699 29.8022 25.4736C29.6446 24.7664 28.9722 24.3005 28.2541 24.3959Z" fill="#F77080"/>
<path d="M20 24.8883C24.4068 24.8883 28.7473 24.5394 32.4394 23.6133C33.2473 23.4107 33.7633 22.6222 33.6371 21.7988C33.4882 20.8274 33.3997 19.7861 33.4242 18.727C33.448 17.6981 32.5107 16.9137 31.5002 17.1088C28.5418 17.6802 24.0966 18.314 19.9999 18.314C15.9032 18.314 11.458 17.6802 8.49967 17.1088C7.48915 16.9136 6.55178 17.6981 6.57561 18.727C6.60015 19.7861 6.5117 20.8273 6.3627 21.7988C6.23648 22.6222 6.7525 23.4106 7.56047 23.6133C11.2527 24.5394 15.5931 24.8883 20 24.8883Z" fill="url(#paint2_linear_1064_1071)"/>
<path d="M13.7801 34.9891C13.6696 34.9891 13.5574 34.9691 13.4482 34.9266C12.9766 34.7432 12.7429 34.2121 12.9264 33.7404C13.2868 32.8134 13.6796 30.6157 13.7351 29.7266C13.7667 29.2216 14.1995 28.8357 14.7068 28.8692C15.2119 28.9008 15.5958 29.3358 15.5642 29.8409C15.5005 30.8593 15.0726 33.278 14.6343 34.4047C14.4935 34.7672 14.1471 34.9891 13.7801 34.9891Z" fill="#F77080"/>
<path d="M26.2198 34.9891C25.853 34.9891 25.5066 34.7672 25.3656 34.4047C24.9273 33.2779 24.4993 30.8594 24.4357 29.8409C24.4041 29.3358 24.788 28.9008 25.2931 28.8692C25.798 28.8366 26.2332 29.2215 26.2648 29.7266C26.3203 30.6157 26.7131 32.8135 27.0735 33.7404C27.257 34.2121 27.0233 34.7432 26.5517 34.9266C26.4425 34.969 26.3302 34.9891 26.2198 34.9891Z" fill="#F77080"/>
</g>
<defs>
<linearGradient id="paint0_linear_1064_1071" x1="20" y1="10.1499" x2="20" y2="0.27685" gradientUnits="userSpaceOnUse">
<stop stop-color="#FB7383"/>
<stop offset="1" stop-color="#ED8492"/>
</linearGradient>
<linearGradient id="paint1_linear_1064_1071" x1="20" y1="36.9761" x2="20" y2="-4.6243" gradientUnits="userSpaceOnUse">
<stop stop-color="#ED7988"/>
<stop offset="1" stop-color="#FF9FAA"/>
</linearGradient>
<linearGradient id="paint2_linear_1064_1071" x1="4.58517" y1="20.9836" x2="35.226" y2="20.9836" gradientUnits="userSpaceOnUse">
<stop stop-color="#FCD843"/>
<stop offset="1" stop-color="#FCECAB"/>
</linearGradient>
<clipPath id="clip0_1064_1071">
<rect width="40" height="40" fill="white"/>
</clipPath>
</defs>
</svg>
