<svg width="40" height="40" viewBox="0 0 40 40" fill="none" xmlns="http://www.w3.org/2000/svg">
<path d="M36.4811 11.7188H3.51231C1.55427 11.7188 -0.322373 13.3666 0.0699703 16.0045L4.80809 36.9993C4.80809 38.2816 6.32122 39.9999 8.27794 39.9999H31.7154C33.6386 39.9999 35.0706 38.4152 35.1761 37.1229L39.9395 15.9118C40.2865 13.402 38.4742 11.7188 36.4811 11.7188Z" fill="url(#paint0_linear_1125_1030)"/>
<path d="M12.9655 19.9219C13.6132 19.9219 14.1373 19.3977 14.1373 18.75C14.1373 9.08203 17.2249 2.34375 19.9967 2.34375C22.7685 2.34375 25.8561 9.08203 25.8561 18.75C25.8561 19.3977 26.3802 19.9219 27.028 19.9219C27.6757 19.9219 28.1998 19.3977 28.1998 18.75C28.1998 8.06125 24.6728 0 19.9967 0C15.3206 0 11.7936 8.06125 11.7936 18.75C11.7936 19.3977 12.3177 19.9219 12.9655 19.9219ZM27.028 23.4375H12.9655C12.3177 23.4375 11.7936 23.9616 11.7936 24.6094V31.7969C11.7936 32.4446 12.3177 32.9688 12.9655 32.9688H27.028C27.6757 32.9688 28.1998 32.4446 28.1998 31.7969V24.6094C28.1998 23.9616 27.6757 23.4375 27.028 23.4375Z" fill="url(#paint1_linear_1125_1030)"/>
<defs>
<linearGradient id="paint0_linear_1125_1030" x1="20" y1="40" x2="20" y2="11.7188" gradientUnits="userSpaceOnUse">
<stop stop-color="#10BDA5"/>
<stop offset="1" stop-color="#8BD870"/>
</linearGradient>
<linearGradient id="paint1_linear_1125_1030" x1="19.9967" y1="32.9688" x2="19.9967" y2="0" gradientUnits="userSpaceOnUse">
<stop stop-color="#D9E4D9"/>
<stop offset="0.9973" stop-color="#C5F9D3"/>
</linearGradient>
</defs>
</svg>
