<svg width="116" height="37" viewBox="0 0 116 37" fill="none" xmlns="http://www.w3.org/2000/svg">
<path d="M84.9593 35.7686C84.6177 35.7686 84.3298 35.6547 84.1021 35.4203C83.8677 35.1927 83.7539 34.898 83.7539 34.5364C83.7539 34.1815 83.8677 33.8936 84.1021 33.6793C84.3298 33.4516 84.6177 33.3311 84.9593 33.3311C85.2941 33.3311 85.582 33.4516 85.8164 33.6793C86.0441 33.8936 86.1646 34.1815 86.1646 34.5364C86.1646 34.898 86.0441 35.1927 85.8164 35.4203C85.582 35.6547 85.2941 35.7686 84.9593 35.7686Z" fill="white"/>
<path d="M90.7485 35.7686C90.032 35.7686 89.3892 35.628 88.82 35.3401C88.2441 35.0387 87.8021 34.6302 87.4807 34.1079C87.1592 33.5722 86.9985 32.9762 86.9985 32.3133C86.9985 31.6369 87.1592 31.0409 87.4807 30.5186C87.8021 30.003 88.2441 29.6012 88.82 29.3133C89.3892 29.0119 90.032 28.8579 90.7485 28.8579C91.445 28.8579 92.061 29.0119 92.5968 29.3133C93.1325 29.6012 93.5142 30.0097 93.7485 30.5454L92.2485 31.3758C91.8869 30.753 91.378 30.4383 90.7218 30.4383C90.2195 30.4383 89.7976 30.6124 89.4628 30.9472C89.1414 31.2686 88.9807 31.724 88.9807 32.3133C88.9807 32.8892 89.1414 33.3445 89.4628 33.6793C89.7976 34.0008 90.2195 34.1615 90.7218 34.1615C91.3981 34.1615 91.907 33.8601 92.2485 33.2508L93.7485 34.0543C93.5142 34.5901 93.1325 35.0119 92.5968 35.3133C92.061 35.6213 91.445 35.7686 90.7485 35.7686Z" fill="white"/>
<path d="M98.0739 35.7686C97.3574 35.7686 96.7145 35.628 96.1453 35.3401C95.5895 35.0387 95.1542 34.6302 94.8328 34.1079C94.5248 33.5722 94.3774 32.9762 94.3774 32.3133C94.3774 31.6369 94.5248 31.0409 94.8328 30.5186C95.1542 30.003 95.5895 29.6012 96.1453 29.3133C96.7145 29.0119 97.3574 28.8579 98.0739 28.8579C98.7703 28.8579 99.3931 29.0119 99.9489 29.3133C100.518 29.6012 100.953 30.003 101.261 30.5186C101.583 31.0409 101.744 31.6369 101.744 32.3133C101.744 32.9762 101.583 33.5722 101.261 34.1079C100.953 34.6302 100.518 35.0387 99.9489 35.3401C99.3931 35.628 98.7703 35.7686 98.0739 35.7686ZM98.0739 34.1615C98.5694 34.1615 98.9846 33.9941 99.306 33.6526C99.6274 33.3177 99.7882 32.8691 99.7882 32.3133C99.7882 31.7441 99.6274 31.2887 99.306 30.9472C98.9846 30.6124 98.5694 30.4383 98.0739 30.4383C97.5716 30.4383 97.1632 30.6124 96.8417 30.9472C96.5203 31.2887 96.3596 31.7441 96.3596 32.3133C96.3596 32.8691 96.5203 33.3177 96.8417 33.6526C97.1632 33.9941 97.5716 34.1615 98.0739 34.1615Z" fill="white"/>
<path d="M111.663 28.8579C112.5 28.8579 113.163 29.1124 113.645 29.6079C114.14 30.0901 114.395 30.8267 114.395 31.8043V35.6615H112.439V32.1258C112.439 31.5901 112.332 31.1883 112.118 30.9204C111.904 30.6526 111.589 30.5186 111.181 30.5186C110.712 30.5186 110.35 30.6726 110.082 30.974C109.814 31.282 109.681 31.7173 109.681 32.2865V35.6615H107.752V32.1258C107.752 31.0543 107.323 30.5186 106.466 30.5186C106.018 30.5186 105.663 30.6726 105.395 30.974C105.127 31.282 104.993 31.7173 104.993 32.2865V35.6615H103.064V28.9383H104.913V29.7151C105.16 29.4338 105.462 29.2195 105.823 29.0722C106.198 28.9316 106.6 28.8579 107.029 28.8579C107.491 28.8579 107.913 28.9584 108.288 29.1526C108.676 29.3334 108.991 29.6012 109.225 29.9561C109.506 29.6012 109.855 29.3334 110.27 29.1526C110.698 28.9584 111.16 28.8579 111.663 28.8579Z" fill="white"/>
<path d="M8.40249 22.9457C6.84891 22.9457 5.44266 22.6176 4.19713 21.9547C2.94489 21.2783 1.96052 20.3475 1.2507 19.1689C0.554269 17.9904 0.206055 16.6712 0.206055 15.2047C0.206055 13.7448 0.554269 12.4189 1.2507 11.2404C1.96052 10.0618 2.94489 9.14439 4.19713 8.48145C5.44266 7.80511 6.84891 7.46359 8.40249 7.46359C9.95606 7.46359 11.3489 7.80511 12.5811 8.48145C13.8266 9.14439 14.8043 10.0618 15.5007 11.2404C16.2105 12.4189 16.5721 13.7448 16.5721 15.2047C16.5721 16.6712 16.2105 17.9904 15.5007 19.1689C14.8043 20.3475 13.8266 21.2783 12.5811 21.9547C11.3489 22.6176 9.95606 22.9457 8.40249 22.9457ZM8.40249 19.9725C9.27302 19.9725 10.0699 19.7783 10.7864 19.3832C11.4962 18.9748 12.0587 18.4123 12.4739 17.6957C12.8824 16.9658 13.09 16.1355 13.09 15.2047C13.09 14.2806 12.8824 13.4502 12.4739 12.7136C12.0587 11.9837 11.4962 11.4212 10.7864 11.0261C10.0699 10.6176 9.27302 10.41 8.40249 10.41C7.50517 10.41 6.70159 10.6176 5.99177 11.0261C5.27525 11.4212 4.71275 11.9837 4.30427 12.7136C3.90918 13.4502 3.71498 14.2806 3.71498 15.2047C3.71498 16.1355 3.90918 16.9658 4.30427 17.6957C4.71275 18.4123 5.27525 18.9748 5.99177 19.3832C6.70159 19.7783 7.50517 19.9725 8.40249 19.9725ZM10.2507 6.4993L8.40249 4.86537L6.52749 6.4993H4.08998L6.92927 3.41895H9.8757L12.6882 6.4993H10.2507Z" fill="white"/>
<path d="M25.9413 10.9995C27.3676 10.9995 28.5194 11.4281 29.3966 12.2852C30.2672 13.1424 30.7091 14.4147 30.7091 16.0888V22.6781H27.3877V16.5977C27.3877 15.687 27.1801 15.0107 26.7716 14.562C26.3765 14.12 25.8073 13.8924 25.0573 13.8924C24.2136 13.8924 23.5439 14.1535 23.0484 14.6692C22.5462 15.1915 22.2984 15.9683 22.2984 16.9995V22.6781H18.9502V11.187H22.1377V12.5263C22.5797 12.0442 23.1355 11.6692 23.7984 11.4013C24.4547 11.1334 25.1712 10.9995 25.9413 10.9995Z" fill="white"/>
<path d="M45.5924 11.187V20.7495C45.5924 22.8522 45.0366 24.4192 43.9317 25.437C42.8402 26.4683 41.2398 26.9906 39.1371 26.9906C38.0255 26.9906 36.9741 26.8567 35.9764 26.5888C34.9719 26.3209 34.1549 25.9259 33.5121 25.4102L34.8246 23.0263C35.3067 23.4147 35.9094 23.7294 36.646 23.9638C37.396 24.1915 38.146 24.312 38.896 24.312C40.0344 24.312 40.8848 24.0509 41.4406 23.5352C41.9898 23.0129 42.271 22.2361 42.271 21.1781V20.6959C41.3938 21.6468 40.1817 22.1156 38.6281 22.1156C37.5701 22.1156 36.6058 21.8879 35.7353 21.4192C34.8581 20.9571 34.1616 20.3075 33.646 19.4638C33.1438 18.6267 32.896 17.6625 32.896 16.5709C32.896 15.466 33.1438 14.495 33.646 13.6513C34.1616 12.8142 34.8581 12.1647 35.7353 11.6959C36.6058 11.2339 37.5701 10.9995 38.6281 10.9995C40.3022 10.9995 41.5746 11.5553 42.4317 12.6602V11.187H45.5924ZM39.2978 19.3834C40.1683 19.3834 40.8848 19.129 41.4406 18.6067C42.0098 18.091 42.2978 17.4147 42.2978 16.5709C42.2978 15.7339 42.0098 15.0575 41.4406 14.5352C40.8848 13.9995 40.1683 13.7317 39.2978 13.7317C38.4005 13.7317 37.6706 13.9995 37.1014 14.5352C36.5456 15.0575 36.271 15.7339 36.271 16.5709C36.271 17.4147 36.5456 18.091 37.1014 18.6067C37.6706 19.129 38.4005 19.3834 39.2978 19.3834Z" fill="white"/>
<path d="M55.4979 10.9994C56.5693 10.9994 57.5403 11.2538 58.4176 11.7494C59.2881 12.2315 59.9778 12.9212 60.4801 13.8119C60.9756 14.7092 61.2301 15.7404 61.2301 16.919C61.2301 18.1177 60.9756 19.1623 60.4801 20.0529C59.9778 20.9302 59.2881 21.6199 58.4176 22.1154C57.5403 22.5976 56.5693 22.8387 55.4979 22.8387C53.9242 22.8387 52.7189 22.3498 51.8818 21.3654V22.6779H48.6943V6.8208H52.0426V12.3922C52.8796 11.4681 54.0314 10.9994 55.4979 10.9994ZM54.9354 20.1065C55.7926 20.1065 56.489 19.8253 57.0247 19.2494C57.5738 18.6802 57.8551 17.9034 57.8551 16.919C57.8551 15.9547 57.5738 15.1913 57.0247 14.6154C56.489 14.0262 55.7926 13.7315 54.9354 13.7315C54.0783 13.7315 53.3684 14.0262 52.8193 14.6154C52.2635 15.1913 51.989 15.9547 51.989 16.919C51.989 17.9034 52.2635 18.6802 52.8193 19.2494C53.3684 19.8253 54.0783 20.1065 54.9354 20.1065Z" fill="white"/>
<path d="M68.11 10.9994C69.8779 10.9994 71.2305 11.4279 72.1814 12.2851C73.1457 13.1288 73.6279 14.4012 73.6279 16.1154V22.6779H70.5207V21.2583C69.8913 22.3163 68.7261 22.8387 67.0118 22.8387C66.1145 22.8387 65.3511 22.6913 64.7082 22.4101C64.0654 22.1087 63.5698 21.7003 63.235 21.1779C62.8935 20.6422 62.7261 20.0396 62.7261 19.3565C62.7261 18.2851 63.1279 17.448 63.9314 16.8387C64.735 16.236 65.9738 15.9279 67.6546 15.9279H70.3064C70.3064 15.198 70.0788 14.6355 69.6368 14.2404C69.1881 13.852 68.5252 13.6512 67.6546 13.6512C67.0453 13.6512 66.4359 13.7516 65.8332 13.9458C65.2439 14.1467 64.7417 14.4012 64.3332 14.7226L63.1279 12.3922C63.7707 11.9503 64.5274 11.6087 65.4046 11.3744C66.2752 11.1266 67.1792 10.9994 68.11 10.9994ZM67.8421 20.6154C68.4113 20.6154 68.9136 20.4815 69.3422 20.2137C69.7841 19.9458 70.1055 19.5574 70.3064 19.0351V17.8565H68.0029C66.6435 17.8565 65.9671 18.3119 65.9671 19.2226C65.9671 19.6512 66.1279 19.9927 66.4493 20.2404C66.7841 20.4949 67.2529 20.6154 67.8421 20.6154ZM63.9046 6.6333H67.4939L70.3868 9.71366H67.7886L63.9046 6.6333Z" fill="white"/>
<path d="M88.0799 11.187L82.8835 23.3745C82.3478 24.7138 81.6849 25.6513 80.9014 26.187C80.1313 26.7227 79.2005 26.9906 78.1157 26.9906C77.5063 26.9906 76.9103 26.8901 76.321 26.6959C75.7451 26.5151 75.2764 26.2674 74.9014 25.9459L76.1335 23.5888C76.3813 23.8031 76.6692 23.9705 76.9907 24.0977C77.3255 24.2383 77.667 24.312 78.0085 24.312C78.4505 24.312 78.8188 24.1915 79.1067 23.9638C79.388 23.7495 79.6491 23.3812 79.8835 22.8656L79.9371 22.7584L74.9549 11.187H78.3835L81.6246 18.9817L84.8657 11.187H88.0799Z" fill="white"/>
<path d="M100.707 16.9726C100.707 17.0128 100.687 17.3074 100.653 17.8565H91.9478C92.1085 18.573 92.4701 19.1422 93.046 19.5708C93.6353 19.986 94.3652 20.1869 95.2425 20.1869C95.8318 20.1869 96.3541 20.0998 96.8228 19.919C97.2849 19.7449 97.7135 19.457 98.1085 19.0619L99.9032 20.9904C98.8117 22.2226 97.2313 22.8387 95.1621 22.8387C93.8563 22.8387 92.7045 22.5909 91.7068 22.0887C90.7023 21.5931 89.9389 20.8967 89.4032 19.9994C88.8675 19.0887 88.5996 18.0641 88.5996 16.919C88.5996 15.794 88.8541 14.7896 89.3764 13.8922C89.9121 12.9815 90.642 12.2784 91.5728 11.7762C92.517 11.2605 93.5684 10.9994 94.7335 10.9994C95.8585 10.9994 96.8764 11.2538 97.7871 11.7494C98.6978 12.2315 99.4076 12.9279 99.93 13.8387C100.446 14.736 100.707 15.7806 100.707 16.9726ZM94.7335 13.5172C93.9835 13.5172 93.3474 13.7315 92.8318 14.1601C92.3295 14.5887 92.0148 15.1779 91.8943 15.9279H97.5728C97.4456 15.198 97.1242 14.6154 96.6085 14.1869C96.1063 13.7449 95.4835 13.5172 94.7335 13.5172ZM96.5282 9.71366L94.68 8.07973L92.805 9.71366H90.3675L93.2068 6.6333H96.1532L98.9657 9.71366H96.5282Z" fill="white"/>
<path d="M114.521 11.187V22.6781H111.36V21.312C110.912 21.8142 110.383 22.1959 109.78 22.4638C109.17 22.7116 108.508 22.8388 107.798 22.8388C106.278 22.8388 105.072 22.4102 104.182 21.5531C103.304 20.6825 102.869 19.3834 102.869 17.6692V11.187H106.217V17.187C106.217 19.0486 106.994 19.9727 108.548 19.9727C109.331 19.9727 109.967 19.7183 110.449 19.1959C110.932 18.6602 111.173 17.8834 111.173 16.8656V11.187H114.521Z" fill="white"/>
<path d="M8.35708 1.14282L1.28564 8.21425C7.45708 5.64282 10.9285 6.28568 15.4285 8.21425L8.35708 1.14282Z" fill="white"/>
<path d="M8.35708 1.14282L1.28564 8.21425C7.45708 5.64282 10.9285 6.28568 15.4285 8.21425L8.35708 1.14282Z" stroke="white"/>
</svg>
