<svg width="116" height="36" viewBox="0 0 116 36" fill="none" xmlns="http://www.w3.org/2000/svg">
<path d="M84.9593 35.2686C84.6177 35.2686 84.3298 35.1547 84.1021 34.9203C83.8677 34.6927 83.7539 34.398 83.7539 34.0364C83.7539 33.6815 83.8677 33.3936 84.1021 33.1793C84.3298 32.9516 84.6177 32.8311 84.9593 32.8311C85.2941 32.8311 85.582 32.9516 85.8164 33.1793C86.0441 33.3936 86.1646 33.6815 86.1646 34.0364C86.1646 34.398 86.0441 34.6927 85.8164 34.9203C85.582 35.1547 85.2941 35.2686 84.9593 35.2686Z" fill="#4AA02C"/>
<path d="M90.7485 35.2686C90.032 35.2686 89.3892 35.128 88.82 34.8401C88.2441 34.5387 87.8021 34.1302 87.4807 33.6079C87.1592 33.0722 86.9985 32.4762 86.9985 31.8133C86.9985 31.1369 87.1592 30.5409 87.4807 30.0186C87.8021 29.503 88.2441 29.1012 88.82 28.8133C89.3892 28.5119 90.032 28.3579 90.7485 28.3579C91.445 28.3579 92.061 28.5119 92.5968 28.8133C93.1325 29.1012 93.5142 29.5097 93.7485 30.0454L92.2485 30.8758C91.8869 30.253 91.378 29.9383 90.7218 29.9383C90.2195 29.9383 89.7976 30.1124 89.4628 30.4472C89.1414 30.7686 88.9807 31.224 88.9807 31.8133C88.9807 32.3892 89.1414 32.8445 89.4628 33.1793C89.7976 33.5008 90.2195 33.6615 90.7218 33.6615C91.3981 33.6615 91.907 33.3601 92.2485 32.7508L93.7485 33.5543C93.5142 34.0901 93.1325 34.5119 92.5968 34.8133C92.061 35.1213 91.445 35.2686 90.7485 35.2686Z" fill="#4AA02C"/>
<path d="M98.0739 35.2686C97.3574 35.2686 96.7145 35.128 96.1453 34.8401C95.5895 34.5387 95.1542 34.1302 94.8328 33.6079C94.5248 33.0722 94.3774 32.4762 94.3774 31.8133C94.3774 31.1369 94.5248 30.5409 94.8328 30.0186C95.1542 29.503 95.5895 29.1012 96.1453 28.8133C96.7145 28.5119 97.3574 28.3579 98.0739 28.3579C98.7703 28.3579 99.3931 28.5119 99.9489 28.8133C100.518 29.1012 100.953 29.503 101.261 30.0186C101.583 30.5409 101.744 31.1369 101.744 31.8133C101.744 32.4762 101.583 33.0722 101.261 33.6079C100.953 34.1302 100.518 34.5387 99.9489 34.8401C99.3931 35.128 98.7703 35.2686 98.0739 35.2686ZM98.0739 33.6615C98.5694 33.6615 98.9846 33.4941 99.306 33.1526C99.6274 32.8177 99.7882 32.3691 99.7882 31.8133C99.7882 31.2441 99.6274 30.7887 99.306 30.4472C98.9846 30.1124 98.5694 29.9383 98.0739 29.9383C97.5716 29.9383 97.1632 30.1124 96.8417 30.4472C96.5203 30.7887 96.3596 31.2441 96.3596 31.8133C96.3596 32.3691 96.5203 32.8177 96.8417 33.1526C97.1632 33.4941 97.5716 33.6615 98.0739 33.6615Z" fill="#4AA02C"/>
<path d="M111.663 28.3579C112.5 28.3579 113.163 28.6124 113.645 29.1079C114.14 29.5901 114.395 30.3267 114.395 31.3043V35.1615H112.439V31.6258C112.439 31.0901 112.332 30.6883 112.118 30.4204C111.904 30.1526 111.589 30.0186 111.181 30.0186C110.712 30.0186 110.35 30.1726 110.082 30.474C109.814 30.782 109.681 31.2173 109.681 31.7865V35.1615H107.752V31.6258C107.752 30.5543 107.323 30.0186 106.466 30.0186C106.018 30.0186 105.663 30.1726 105.395 30.474C105.127 30.782 104.993 31.2173 104.993 31.7865V35.1615H103.064V28.4383H104.913V29.2151C105.16 28.9338 105.462 28.7195 105.823 28.5722C106.198 28.4316 106.6 28.3579 107.029 28.3579C107.491 28.3579 107.913 28.4584 108.288 28.6526C108.676 28.8334 108.991 29.1012 109.225 29.4561C109.506 29.1012 109.855 28.8334 110.27 28.6526C110.698 28.4584 111.16 28.3579 111.663 28.3579Z" fill="#4AA02C"/>
<path d="M8.40249 22.4457C6.84891 22.4457 5.44266 22.1176 4.19713 21.4547C2.94489 20.7783 1.96052 19.8475 1.2507 18.6689C0.554269 17.4904 0.206055 16.1712 0.206055 14.7047C0.206055 13.2448 0.554269 11.9189 1.2507 10.7404C1.96052 9.5618 2.94489 8.64439 4.19713 7.98145C5.44266 7.30511 6.84891 6.96359 8.40249 6.96359C9.95606 6.96359 11.3489 7.30511 12.5811 7.98145C13.8266 8.64439 14.8043 9.5618 15.5007 10.7404C16.2105 11.9189 16.5721 13.2448 16.5721 14.7047C16.5721 16.1712 16.2105 17.4904 15.5007 18.6689C14.8043 19.8475 13.8266 20.7783 12.5811 21.4547C11.3489 22.1176 9.95606 22.4457 8.40249 22.4457ZM8.40249 19.4725C9.27302 19.4725 10.0699 19.2783 10.7864 18.8832C11.4962 18.4748 12.0587 17.9123 12.4739 17.1957C12.8824 16.4658 13.09 15.6355 13.09 14.7047C13.09 13.7806 12.8824 12.9502 12.4739 12.2136C12.0587 11.4837 11.4962 10.9212 10.7864 10.5261C10.0699 10.1176 9.27302 9.91002 8.40249 9.91002C7.50517 9.91002 6.70159 10.1176 5.99177 10.5261C5.27525 10.9212 4.71275 11.4837 4.30427 12.2136C3.90918 12.9502 3.71498 13.7806 3.71498 14.7047C3.71498 15.6355 3.90918 16.4658 4.30427 17.1957C4.71275 17.9123 5.27525 18.4748 5.99177 18.8832C6.70159 19.2783 7.50517 19.4725 8.40249 19.4725ZM10.2507 5.9993L8.40249 4.36537L6.52749 5.9993H4.08998L6.92927 2.91895H9.8757L12.6882 5.9993H10.2507Z" fill="#4AA02C"/>
<path d="M25.9413 10.4995C27.3676 10.4995 28.5194 10.9281 29.3966 11.7852C30.2672 12.6424 30.7091 13.9147 30.7091 15.5888V22.1781H27.3877V16.0977C27.3877 15.187 27.1801 14.5107 26.7716 14.062C26.3765 13.62 25.8073 13.3924 25.0573 13.3924C24.2136 13.3924 23.5439 13.6535 23.0484 14.1692C22.5462 14.6915 22.2984 15.4683 22.2984 16.4995V22.1781H18.9502V10.687H22.1377V12.0263C22.5797 11.5442 23.1355 11.1692 23.7984 10.9013C24.4547 10.6334 25.1712 10.4995 25.9413 10.4995Z" fill="#4AA02C"/>
<path d="M45.5924 10.687V20.2495C45.5924 22.3522 45.0366 23.9192 43.9317 24.937C42.8402 25.9683 41.2398 26.4906 39.1371 26.4906C38.0255 26.4906 36.9741 26.3567 35.9764 26.0888C34.9719 25.8209 34.1549 25.4259 33.5121 24.9102L34.8246 22.5263C35.3067 22.9147 35.9094 23.2294 36.646 23.4638C37.396 23.6915 38.146 23.812 38.896 23.812C40.0344 23.812 40.8848 23.5509 41.4406 23.0352C41.9898 22.5129 42.271 21.7361 42.271 20.6781V20.1959C41.3938 21.1468 40.1817 21.6156 38.6281 21.6156C37.5701 21.6156 36.6058 21.3879 35.7353 20.9192C34.8581 20.4571 34.1616 19.8075 33.646 18.9638C33.1438 18.1267 32.896 17.1625 32.896 16.0709C32.896 14.966 33.1438 13.995 33.646 13.1513C34.1616 12.3142 34.8581 11.6647 35.7353 11.1959C36.6058 10.7339 37.5701 10.4995 38.6281 10.4995C40.3022 10.4995 41.5746 11.0553 42.4317 12.1602V10.687H45.5924ZM39.2978 18.8834C40.1683 18.8834 40.8848 18.629 41.4406 18.1067C42.0098 17.591 42.2978 16.9147 42.2978 16.0709C42.2978 15.2339 42.0098 14.5575 41.4406 14.0352C40.8848 13.4995 40.1683 13.2317 39.2978 13.2317C38.4005 13.2317 37.6706 13.4995 37.1014 14.0352C36.5456 14.5575 36.271 15.2339 36.271 16.0709C36.271 16.9147 36.5456 17.591 37.1014 18.1067C37.6706 18.629 38.4005 18.8834 39.2978 18.8834Z" fill="#4AA02C"/>
<path d="M55.4979 10.4994C56.5693 10.4994 57.5403 10.7538 58.4176 11.2494C59.2881 11.7315 59.9778 12.4212 60.4801 13.3119C60.9756 14.2092 61.2301 15.2404 61.2301 16.419C61.2301 17.6177 60.9756 18.6623 60.4801 19.5529C59.9778 20.4302 59.2881 21.1199 58.4176 21.6154C57.5403 22.0976 56.5693 22.3387 55.4979 22.3387C53.9242 22.3387 52.7189 21.8498 51.8818 20.8654V22.1779H48.6943V6.3208H52.0426V11.8922C52.8796 10.9681 54.0314 10.4994 55.4979 10.4994ZM54.9354 19.6065C55.7926 19.6065 56.489 19.3253 57.0247 18.7494C57.5738 18.1802 57.8551 17.4034 57.8551 16.419C57.8551 15.4547 57.5738 14.6913 57.0247 14.1154C56.489 13.5262 55.7926 13.2315 54.9354 13.2315C54.0783 13.2315 53.3684 13.5262 52.8193 14.1154C52.2635 14.6913 51.989 15.4547 51.989 16.419C51.989 17.4034 52.2635 18.1802 52.8193 18.7494C53.3684 19.3253 54.0783 19.6065 54.9354 19.6065Z" fill="#4AA02C"/>
<path d="M68.11 10.4994C69.8779 10.4994 71.2305 10.9279 72.1814 11.7851C73.1457 12.6288 73.6279 13.9012 73.6279 15.6154V22.1779H70.5207V20.7583C69.8913 21.8163 68.7261 22.3387 67.0118 22.3387C66.1145 22.3387 65.3511 22.1913 64.7082 21.9101C64.0654 21.6087 63.5698 21.2003 63.235 20.6779C62.8935 20.1422 62.7261 19.5396 62.7261 18.8565C62.7261 17.7851 63.1279 16.948 63.9314 16.3387C64.735 15.736 65.9738 15.4279 67.6546 15.4279H70.3064C70.3064 14.698 70.0788 14.1355 69.6368 13.7404C69.1881 13.352 68.5252 13.1512 67.6546 13.1512C67.0453 13.1512 66.4359 13.2516 65.8332 13.4458C65.2439 13.6467 64.7417 13.9012 64.3332 14.2226L63.1279 11.8922C63.7707 11.4503 64.5274 11.1087 65.4046 10.8744C66.2752 10.6266 67.1792 10.4994 68.11 10.4994ZM67.8421 20.1154C68.4113 20.1154 68.9136 19.9815 69.3422 19.7137C69.7841 19.4458 70.1055 19.0574 70.3064 18.5351V17.3565H68.0029C66.6435 17.3565 65.9671 17.8119 65.9671 18.7226C65.9671 19.1512 66.1279 19.4927 66.4493 19.7404C66.7841 19.9949 67.2529 20.1154 67.8421 20.1154ZM63.9046 6.1333H67.4939L70.3868 9.21366H67.7886L63.9046 6.1333Z" fill="#4AA02C"/>
<path d="M88.0799 10.687L82.8835 22.8745C82.3478 24.2138 81.6849 25.1513 80.9014 25.687C80.1313 26.2227 79.2005 26.4906 78.1157 26.4906C77.5063 26.4906 76.9103 26.3901 76.321 26.1959C75.7451 26.0151 75.2764 25.7674 74.9014 25.4459L76.1335 23.0888C76.3813 23.3031 76.6692 23.4705 76.9907 23.5977C77.3255 23.7383 77.667 23.812 78.0085 23.812C78.4505 23.812 78.8188 23.6915 79.1067 23.4638C79.388 23.2495 79.6491 22.8812 79.8835 22.3656L79.9371 22.2584L74.9549 10.687H78.3835L81.6246 18.4817L84.8657 10.687H88.0799Z" fill="#4AA02C"/>
<path d="M100.707 16.4726C100.707 16.5128 100.687 16.8074 100.653 17.3565H91.9478C92.1085 18.073 92.4701 18.6422 93.046 19.0708C93.6353 19.486 94.3652 19.6869 95.2425 19.6869C95.8318 19.6869 96.3541 19.5998 96.8228 19.419C97.2849 19.2449 97.7135 18.957 98.1085 18.5619L99.9032 20.4904C98.8117 21.7226 97.2313 22.3387 95.1621 22.3387C93.8563 22.3387 92.7045 22.0909 91.7068 21.5887C90.7023 21.0931 89.9389 20.3967 89.4032 19.4994C88.8675 18.5887 88.5996 17.5641 88.5996 16.419C88.5996 15.294 88.8541 14.2896 89.3764 13.3922C89.9121 12.4815 90.642 11.7784 91.5728 11.2762C92.517 10.7605 93.5684 10.4994 94.7335 10.4994C95.8585 10.4994 96.8764 10.7538 97.7871 11.2494C98.6978 11.7315 99.4076 12.4279 99.93 13.3387C100.446 14.236 100.707 15.2806 100.707 16.4726ZM94.7335 13.0172C93.9835 13.0172 93.3474 13.2315 92.8318 13.6601C92.3295 14.0887 92.0148 14.6779 91.8943 15.4279H97.5728C97.4456 14.698 97.1242 14.1154 96.6085 13.6869C96.1063 13.2449 95.4835 13.0172 94.7335 13.0172ZM96.5282 9.21366L94.68 7.57973L92.805 9.21366H90.3675L93.2068 6.1333H96.1532L98.9657 9.21366H96.5282Z" fill="#4AA02C"/>
<path d="M114.521 10.687V22.1781H111.36V20.812C110.912 21.3142 110.383 21.6959 109.78 21.9638C109.17 22.2116 108.508 22.3388 107.798 22.3388C106.278 22.3388 105.072 21.9102 104.182 21.0531C103.304 20.1825 102.869 18.8834 102.869 17.1692V10.687H106.217V16.687C106.217 18.5486 106.994 19.4727 108.548 19.4727C109.331 19.4727 109.967 19.2183 110.449 18.6959C110.932 18.1602 111.173 17.3834 111.173 16.3656V10.687H114.521Z" fill="#4AA02C"/>
<path d="M8.35708 0.642822L1.28564 7.71425C7.45708 5.14282 10.9285 5.78568 15.4285 7.71425L8.35708 0.642822Z" fill="#4AA02C"/>
<path d="M8.35708 0.642822L1.28564 7.71425C7.45708 5.14282 10.9285 5.78568 15.4285 7.71425L8.35708 0.642822Z" stroke="#4AA02C"/>
</svg>
