<svg width="40" height="40" viewBox="0 0 40 40" fill="none" xmlns="http://www.w3.org/2000/svg">
<path d="M20 29.375C25.1705 29.375 29.375 25.1693 29.375 20C29.375 14.8307 25.1705 10.625 20 10.625C14.8295 10.625 10.625 14.8307 10.625 20C10.625 25.1693 14.8295 29.375 20 29.375ZM12.9688 9.45312C13.6165 9.45312 14.1406 8.92898 14.1406 8.28125V4.76562H25.8594V8.28125C25.8594 8.92898 26.3835 9.45312 27.0312 9.45312C27.679 9.45312 28.2031 8.92898 28.2031 8.28125V3.59375C28.2031 2.94602 27.679 2.42188 27.0312 2.42188H12.9688C12.321 2.42188 11.7969 2.94602 11.7969 3.59375V8.28125C11.7969 8.92898 12.321 9.45312 12.9688 9.45312ZM38.8281 25.8594C38.1804 25.8594 37.6562 26.3835 37.6562 27.0312C37.6562 28.9698 36.0792 30.5469 34.1406 30.5469H5.85938C3.92078 30.5469 2.34375 28.9698 2.34375 27.0312C2.34375 26.3835 1.81961 25.8594 1.17188 25.8594C0.524141 25.8594 0 26.3835 0 27.0312V36.4062C0 37.054 0.524141 37.5781 1.17188 37.5781H38.8281C39.4759 37.5781 40 37.054 40 36.4062V27.0312C40 26.3835 39.4759 25.8594 38.8281 25.8594Z" fill="url(#paint0_linear_1125_41)"/>
<path d="M34.1406 7.10938H5.85938C2.625 7.10938 0 9.73438 0 12.9688V27.0312C0 30.2656 2.625 32.8906 5.85938 32.8906H34.1406C37.375 32.8906 40 30.2656 40 27.0312V12.9688C40 9.73438 37.375 7.10938 34.1406 7.10938ZM20 28.2031C15.4766 28.2031 11.7969 24.5234 11.7969 20C11.7969 15.4766 15.4766 11.7969 20 11.7969C24.5234 11.7969 28.2031 15.4766 28.2031 20C28.2031 24.5234 24.5234 28.2031 20 28.2031ZM22.3438 18.8281H21.1719V17.6562C21.1719 17.0085 20.6477 16.4844 20 16.4844C19.3523 16.4844 18.8281 17.0085 18.8281 17.6562V18.8281H17.6562C17.0085 18.8281 16.4844 19.3523 16.4844 20C16.4844 20.6477 17.0085 21.1719 17.6562 21.1719H18.8281V22.3438C18.8281 22.9915 19.3523 23.5156 20 23.5156C20.6477 23.5156 21.1719 22.9915 21.1719 22.3438V21.1719H22.3438C22.9915 21.1719 23.5156 20.6477 23.5156 20C23.5156 19.3523 22.9915 18.8281 22.3438 18.8281Z" fill="url(#paint1_linear_1125_41)"/>
<defs>
<linearGradient id="paint0_linear_1125_41" x1="20" y1="37.5781" x2="20" y2="2.42188" gradientUnits="userSpaceOnUse">
<stop stop-color="#C5F9D3"/>
<stop offset="1" stop-color="#D9E4D9"/>
</linearGradient>
<linearGradient id="paint1_linear_1125_41" x1="20" y1="32.8906" x2="20" y2="7.10938" gradientUnits="userSpaceOnUse">
<stop stop-color="#10BDA5"/>
<stop offset="1" stop-color="#8BD870"/>
</linearGradient>
</defs>
</svg>
