<svg width="40" height="40" viewBox="0 0 40 40" fill="none" xmlns="http://www.w3.org/2000/svg">
<path d="M10.8333 35.8334V12.4767C10.8338 12.0792 10.9762 11.695 11.235 11.3934L15.8333 6.02669V3.52669C15.8333 3.30568 15.9211 3.09372 16.0774 2.93744C16.2337 2.78116 16.4457 2.69336 16.6667 2.69336L30.8333 2.71669C31.0544 2.71669 31.2663 2.80449 31.4226 2.96077C31.5789 3.11705 31.6667 3.32901 31.6667 3.55003V6.05003L36.2667 11.4167C36.5253 11.7183 36.6672 12.1027 36.6667 12.5V35.8584C36.6654 36.3 36.4893 36.7231 36.1771 37.0354C35.8648 37.3477 35.4416 37.5237 35 37.525L12.5 37.5C12.058 37.5 11.6341 37.3244 11.3215 37.0119C11.0089 36.6993 10.8333 36.2754 10.8333 35.8334Z" fill="url(#paint0_linear_1064_1058)"/>
<path d="M32.5 19.1667H25C24.0795 19.1667 23.3333 19.9129 23.3333 20.8334V24.1667C23.3333 25.0872 24.0795 25.8334 25 25.8334H32.5C33.4205 25.8334 34.1667 25.0872 34.1667 24.1667V20.8334C34.1667 19.9129 33.4205 19.1667 32.5 19.1667Z" fill="url(#paint1_linear_1064_1058)"/>
<path d="M10.8333 12.4766V35.8333C10.8333 36.2753 11.0089 36.6992 11.3215 37.0118C11.6341 37.3244 12.058 37.4999 12.5 37.4999L20.8333 37.5083V11.6666L15.8333 6.02661L11.235 11.3916C10.9759 11.6937 10.8334 12.0786 10.8333 12.4766Z" fill="url(#paint2_linear_1064_1058)"/>
<path d="M15.8333 6.02661L11.235 11.3916C11.1629 11.4765 11.0997 11.5687 11.0467 11.6666H36.4425C36.3917 11.5781 36.3328 11.4944 36.2667 11.4166L31.6667 6.04994L15.8333 6.02661Z" fill="url(#paint3_linear_1064_1058)"/>
<path d="M11.235 11.3916C11.1629 11.4765 11.0997 11.5687 11.0467 11.6666H20.8333L15.8333 6.02661L11.235 11.3916Z" fill="url(#paint4_linear_1064_1058)"/>
<path d="M13.6508 37.4999H7.1825C6.55985 37.5021 5.95899 37.2709 5.49838 36.8519C5.03777 36.433 4.75084 35.8566 4.69417 35.2366L3.345 21.0699C3.31203 20.7233 3.35185 20.3735 3.4619 20.0432C3.57195 19.7128 3.74981 19.409 3.98407 19.1514C4.21834 18.8938 4.50384 18.6879 4.82229 18.547C5.14074 18.4061 5.48511 18.3333 5.83333 18.3333H15C15.3482 18.3333 15.6926 18.4061 16.011 18.547C16.3295 18.6879 16.615 18.8938 16.8493 19.1514C17.0835 19.409 17.2614 19.7128 17.3714 20.0432C17.4815 20.3735 17.5213 20.7233 17.4883 21.0699L16.1392 35.2366C16.0825 35.8566 15.7956 36.433 15.3349 36.8519C14.8743 37.2709 14.2735 37.5021 13.6508 37.4999Z" fill="url(#paint5_linear_1064_1058)"/>
<path d="M10.4167 24.1899C8.74038 23.77 7.00109 23.6624 5.28583 23.8724L6.35333 35.0833C6.37006 35.2915 6.4656 35.4854 6.62046 35.6256C6.77533 35.7657 6.97783 35.8415 7.18666 35.8374H13.655C13.8638 35.8415 14.0663 35.7657 14.2212 35.6256C14.3761 35.4854 14.4716 35.2915 14.4883 35.0833L15.495 24.5174C13.7964 24.7189 12.0753 24.6079 10.4167 24.1899Z" fill="url(#paint6_linear_1064_1058)"/>
<defs>
<linearGradient id="paint0_linear_1064_1058" x1="20.7742" y1="20.1084" x2="36.0625" y2="20.1084" gradientUnits="userSpaceOnUse">
<stop stop-color="#6FC6FC"/>
<stop offset="1" stop-color="#50A7F6"/>
</linearGradient>
<linearGradient id="paint1_linear_1064_1058" x1="20.9075" y1="22.5001" x2="36.6142" y2="22.5001" gradientUnits="userSpaceOnUse">
<stop stop-color="white"/>
<stop offset="1" stop-color="#EDF1F2"/>
</linearGradient>
<linearGradient id="paint2_linear_1064_1058" x1="10.9967" y1="21.7683" x2="24.56" y2="21.7683" gradientUnits="userSpaceOnUse">
<stop stop-color="#4793EB"/>
<stop offset="1" stop-color="#2367EC"/>
</linearGradient>
<linearGradient id="paint3_linear_1064_1058" x1="8.45249" y1="8.84661" x2="32.6667" y2="8.84661" gradientUnits="userSpaceOnUse">
<stop stop-color="#E3F0FF"/>
<stop offset="1" stop-color="#90D5FE"/>
</linearGradient>
<linearGradient id="paint4_linear_1064_1058" x1="10.4617" y1="8.84661" x2="20.0642" y2="8.84661" gradientUnits="userSpaceOnUse">
<stop stop-color="#6FC6FC"/>
<stop offset="1" stop-color="#50A7F6"/>
</linearGradient>
<linearGradient id="paint5_linear_1064_1058" x1="-3.19917" y1="27.9166" x2="17.4367" y2="27.9166" gradientUnits="userSpaceOnUse">
<stop stop-color="#E3F0FF"/>
<stop offset="1" stop-color="#90D5FE"/>
</linearGradient>
<linearGradient id="paint6_linear_1064_1058" x1="6.04166" y1="29.8041" x2="16.0875" y2="29.8041" gradientUnits="userSpaceOnUse">
<stop stop-color="white"/>
<stop offset="1" stop-color="#EDF1F2"/>
</linearGradient>
</defs>
</svg>
