<svg width="136" height="47" viewBox="0 0 136 47" fill="none" xmlns="http://www.w3.org/2000/svg">
<g clip-path="url(#clip0_4111_5738)">
<path d="M23.5067 46.3295C21.5758 46.3295 19.6448 46.0815 17.7608 45.592C11.8606 44.0634 6.91256 40.3288 3.82169 35.0723C0.730817 29.8159 -0.127386 23.6743 1.40129 17.7742C2.6953 12.7725 5.6856 8.32056 9.8157 5.23639L9.90286 5.18275L10.0101 5.12241C10.1576 5.05536 10.3118 5.01514 10.4593 5.01514C10.7477 5.01514 11.0024 5.14923 11.17 5.3839C11.4785 5.813 11.5321 6.55051 10.7879 8.76977C8.20657 16.507 10.0906 22.7089 16.3997 27.201C20.8852 30.3992 23.2855 30.7612 25.4108 31.083C27.677 31.425 29.8225 31.7468 33.604 35.2735C36.2859 37.7676 36.3596 38.2504 36.1585 38.7532C36.0445 39.0549 35.7562 39.236 35.4143 39.236C35.3673 39.236 35.3204 39.236 35.2735 39.2293C34.6835 39.4438 32.9268 39.9936 30.2718 39.9936C28.4146 39.9936 26.4836 39.7254 24.5258 39.2024C17.8278 37.4123 13.9592 35.4076 11.17 32.2899C10.5934 31.6395 10.0973 31.0361 9.6749 30.4863C10.627 32.7123 12.6317 35.535 16.8623 37.7274C20.1409 39.4237 23.9962 40.2819 28.3207 40.2819C32.1223 40.2819 34.898 39.5846 34.9248 39.5779L35.783 39.3567L35.7629 40.2417C35.7629 40.2953 35.7294 41.5156 35.4344 42.7157L35.3673 42.9906L35.126 43.1314C31.5993 45.2233 27.5765 46.3363 23.4933 46.3363L23.5067 46.3295Z" fill="#006838"/>
<path d="M10.4593 5.67896C10.7141 5.67896 10.989 6.06784 10.1576 8.54858C8.94408 12.1959 6.64436 21.0596 16.0175 27.7375C25.384 34.4153 25.9942 29.0851 33.1548 35.7496C35.8166 38.2303 35.6758 38.5521 35.4277 38.5521C35.3405 38.5521 35.2399 38.5119 35.2399 38.5119C35.2399 38.5119 33.4297 39.3031 30.2852 39.3031C28.7364 39.3031 26.8591 39.1086 24.7136 38.5387C18.21 36.8022 14.3749 34.8377 11.6796 31.8273C9.1184 28.9577 8.24679 26.9597 8.16633 26.7787C8.15963 27.2011 8.23338 33.9929 16.5673 38.3108C20.5767 40.3892 24.8879 40.939 28.3341 40.939C32.2765 40.939 35.1059 40.2149 35.1059 40.2149C35.1059 40.2149 35.079 41.4016 34.7974 42.5414C31.4317 44.5395 27.5429 45.6524 23.5067 45.6524C21.6629 45.6524 19.7923 45.4245 17.9284 44.935C6.08787 41.871 -1.01912 29.7891 2.05164 17.9419C3.36576 12.8798 6.32924 8.68267 10.218 5.77283C10.218 5.77283 10.2247 5.77283 10.2448 5.75272C10.2515 5.75272 10.2716 5.7326 10.2917 5.7259C10.3387 5.70578 10.3923 5.68567 10.4526 5.68567M10.4526 4.34473C10.2046 4.34473 9.95649 4.40507 9.71512 4.51234L9.66148 4.53916L9.60785 4.56598L9.55421 4.59951L9.52739 4.61962L9.46705 4.65985L9.4067 4.70678C5.16933 7.8714 2.09187 12.4574 0.757631 17.6066C-2.49415 30.1444 5.06205 42.9907 17.5932 46.2424C19.5308 46.7453 21.5221 47.0001 23.5067 47.0001C27.7106 47.0001 31.8474 45.8603 35.4813 43.7014L35.9641 43.4131L36.0981 42.8633C36.4066 41.5961 36.4401 40.3021 36.4401 40.2484L36.4602 39.4841C36.601 39.3433 36.715 39.1757 36.7954 38.988C37.1843 38.0024 36.6479 37.1777 34.0733 34.7774C30.1377 31.1099 27.8916 30.7747 25.5181 30.4126C23.3726 30.0908 21.1534 29.7556 16.7953 26.6513C10.7543 22.3469 8.95078 16.3998 11.4315 8.97768C12.169 6.76513 12.2495 5.71919 11.7198 4.98838C11.4248 4.57939 10.9689 4.34473 10.4593 4.34473H10.4526Z" fill="white"/>
<path d="M36.8022 40.6507C36.9296 38.1432 35.3875 35.7898 32.2229 33.6577C29.1655 31.5994 27.0535 31.0026 24.8209 30.3724C23.0039 29.8561 21.1199 29.3265 18.5989 28.0257C8.3541 22.7223 10.1174 11.331 11.5388 7.76412C11.9277 6.77853 11.854 5.85999 11.3109 5.03531L10.9287 4.4587L11.512 4.09665C15.1191 1.85728 19.256 0.677246 23.4866 0.677246C25.4109 0.677246 27.3418 0.92532 29.2191 1.41476C35.1193 2.94344 40.0741 6.68466 43.1649 11.9412C46.2558 17.1976 47.114 23.3392 45.5853 29.2393C44.3517 33.9929 41.6899 38.1365 37.895 41.2139L36.7284 42.1593L36.8022 40.6574V40.6507Z" fill="url(#paint0_linear_4111_5738)"/>
<path d="M23.4866 1.34092C25.3237 1.34092 27.1876 1.56888 29.0515 2.05162C40.8988 5.12238 48.0058 17.2177 44.935 29.0582C43.7013 33.8185 41.0127 37.8078 37.466 40.6841C37.5665 38.6191 36.6681 35.8501 32.5916 33.1011C26.9999 29.3331 24.5259 30.3388 18.9006 27.4289C8.68935 22.1456 11.0427 10.808 12.1557 8.01211C12.739 6.54378 12.3568 5.41068 11.8607 4.65975C15.2935 2.52766 19.3096 1.34092 23.4799 1.34092M23.4799 -1.83191e-05C19.1286 -1.83191e-05 14.8644 1.22024 11.15 3.51995L9.97666 4.24406L10.7343 5.39727C11.1567 6.04092 11.2103 6.73151 10.9019 7.50925C9.42017 11.2304 7.58978 23.0843 18.2771 28.6157C20.8584 29.9499 22.8564 30.5131 24.6264 31.0093C26.906 31.6529 28.8705 32.2027 31.834 34.2007C34.7908 36.192 36.2323 38.3442 36.1183 40.6037L35.9708 43.6074L38.304 41.7167C42.2129 38.5453 44.9551 34.2812 46.2223 29.3867C47.7979 23.3123 46.9129 16.9897 43.7349 11.579C40.5501 6.16831 35.4545 2.31981 29.3801 0.744204C27.4424 0.241351 25.4578 -0.0134277 23.4799 -0.0134277V-1.83191e-05Z" fill="white"/>
<path d="M4.08318 40.4629L4.02954 39.1287C4.11 39.122 12.3367 38.0961 27.838 28.5553C42.3402 19.6314 44.6601 14.1737 45.0288 12.7121C44.9953 12.6048 44.5997 12.3031 44.184 12.1422L43.9226 12.0416L42.8498 9.55419L43.5806 9.33964C43.6275 9.32623 44.7338 9.01111 46.8994 8.88372C47.4023 8.8569 47.9052 8.83008 48.3812 8.83008C49.8897 8.83008 51.6866 9.08486 52.2699 11.0829C53.041 13.7446 42.0653 25.5449 27.5027 32.9536C13.1614 40.2483 5.09559 40.4629 4.21727 40.4629H4.08318Z" fill="#F15A29"/>
<path d="M48.3812 9.5072C49.9099 9.5072 51.1972 9.7955 51.6263 11.2772C52.1828 13.2015 42.3671 24.6531 27.201 32.3635C13.0675 39.551 5.22301 39.7991 4.22401 39.7991C4.15026 39.7991 4.11673 39.7991 4.11673 39.7991C4.11673 39.7991 12.3434 38.8872 28.2 29.1319C44.0634 19.3698 45.4915 13.6775 45.6859 12.8797C45.8871 12.0818 44.4321 11.5253 44.4321 11.5253L43.7751 9.99664C43.7751 9.99664 44.8344 9.68823 46.9464 9.56754C47.4358 9.54072 47.9253 9.51391 48.3879 9.51391M48.3879 8.17296C47.9052 8.17296 47.4157 8.19978 46.8727 8.23331C44.6735 8.3607 43.527 8.67582 43.4063 8.70934L41.9447 9.13174L42.5481 10.5263L43.2052 12.055L43.4264 12.5713L43.9494 12.7724C44.05 12.8126 44.1639 12.873 44.2645 12.9333C43.6678 14.5626 40.8116 19.7922 27.496 27.9854C19.4839 32.9133 13.51 35.5014 9.9096 36.8021C6.01416 38.2101 3.98264 38.4581 3.96252 38.4648L4.0698 41.14C4.0698 41.14 4.12344 41.14 4.22401 41.14C4.84084 41.14 7.16067 41.0663 11.1164 40.0807C16.1651 38.8202 21.7836 36.6277 27.8112 33.5637C36.8156 28.9844 43.2186 23.4932 46.2357 20.6236C52.7125 14.4687 53.2019 11.8941 52.9136 10.9018C52.1224 8.16626 49.3065 8.16626 48.3812 8.16626L48.3879 8.17296Z" fill="white"/>
<path d="M55.7026 29.6749L55.0054 27.9518H52.3034L51.6262 29.6749H48.9175L52.719 20.885H54.6366L58.4583 29.6749H55.7026ZM54.127 25.7727L53.6242 24.4988L53.128 25.7727H54.127Z" fill="#414042"/>
<path d="M54.4154 21.2203L57.9488 29.3397H55.9307L55.2334 27.6166H52.0822L51.405 29.3397H49.4338L52.9404 21.2203H54.4221M52.6453 26.108H54.6299L53.6309 23.587L52.6453 26.108ZM54.8646 20.5498H52.5046L52.3302 20.9521L48.8237 29.0715L48.4214 30.0101H51.8743L52.0419 29.5878L52.5515 28.2937H54.7976L55.3272 29.5945L55.4949 30.0101H58.988L58.579 29.0715L55.0456 20.9521L54.8713 20.5498H54.8646ZM53.6309 25.4375V25.4174L53.6444 25.4375H53.6309Z" fill="white"/>
<path d="M62.823 29.8829C62.1525 29.8829 61.5223 29.7756 60.9524 29.5611C60.3758 29.3465 59.8729 29.0381 59.4505 28.6358C59.0282 28.2336 58.6929 27.7441 58.4583 27.1742C58.2236 26.611 58.1029 25.9674 58.1029 25.2768C58.1029 24.5862 58.2236 23.9493 58.4583 23.3794C58.6929 22.8095 59.0282 22.32 59.4505 21.9177C59.8729 21.5154 60.3758 21.207 60.9524 20.9925C61.5223 20.7779 62.1525 20.6707 62.823 20.6707C63.4935 20.6707 64.1371 20.7511 64.7137 20.9187C65.3105 21.0863 65.8401 21.3881 66.2894 21.8038L66.5374 22.0317L64.8076 23.9157L64.5595 23.661C64.3517 23.4397 64.1103 23.2721 63.8421 23.1648C63.5806 23.0508 63.2387 22.9972 62.8297 22.9972C62.4945 22.9972 62.1861 23.0508 61.9179 23.1648C61.6564 23.2788 61.4217 23.433 61.234 23.6341C61.0463 23.8353 60.8988 24.0766 60.7982 24.3515C60.6909 24.6331 60.6373 24.9483 60.6373 25.2768C60.6373 25.6053 60.6909 25.9338 60.7915 26.2087C60.8921 26.4836 61.0396 26.725 61.234 26.9194C61.4217 27.1206 61.6497 27.2748 61.9179 27.3888C62.1861 27.5028 62.4878 27.5564 62.8297 27.5564C63.1851 27.5564 63.4935 27.5162 63.7416 27.4424C63.9092 27.3888 64.0567 27.3351 64.1841 27.2815V26.5105H62.7291V24.1906H66.5777V28.9711L66.3966 29.0649C65.8468 29.3532 65.2635 29.5611 64.6601 29.6952C64.0701 29.8226 63.4533 29.8829 62.8364 29.8829H62.823Z" fill="#414042"/>
<path d="M62.8231 21.0125C63.4734 21.0125 64.0701 21.093 64.6199 21.2472C65.163 21.4014 65.6458 21.6763 66.0614 22.0585L64.801 23.4329C64.5529 23.1782 64.278 22.9904 63.9763 22.8563C63.6679 22.7289 63.2857 22.6619 62.8298 22.6619C62.4476 22.6619 62.099 22.7289 61.7906 22.8563C61.4821 22.9837 61.2139 23.1647 60.9927 23.3994C60.7714 23.6341 60.5971 23.909 60.4831 24.2308C60.3624 24.5526 60.3021 24.9013 60.3021 25.2767C60.3021 25.6522 60.3624 26.0075 60.4831 26.3294C60.6038 26.6445 60.7714 26.9194 60.9927 27.154C61.2139 27.3887 61.4821 27.5697 61.7906 27.6971C62.099 27.8245 62.4476 27.8916 62.8298 27.8916C63.2119 27.8916 63.5539 27.8446 63.8422 27.7575C64.1238 27.6703 64.3518 27.5831 64.5194 27.4893V26.1684H63.0644V24.5191H66.2425V28.7632C65.7128 29.0381 65.163 29.2392 64.5931 29.3599C64.0232 29.4806 63.4332 29.5409 62.8365 29.5409C62.1995 29.5409 61.6162 29.4403 61.0799 29.2459C60.5435 29.0448 60.0808 28.7632 59.692 28.3944C59.3031 28.0257 58.9947 27.5764 58.7801 27.0468C58.5589 26.5171 58.4516 25.9271 58.4516 25.2834C58.4516 24.6398 58.5589 24.0431 58.7801 23.5201C58.9947 22.9904 59.3031 22.5412 59.692 22.1724C60.0808 21.8037 60.5435 21.5154 61.0799 21.3209C61.6162 21.1198 62.1995 21.0259 62.8365 21.0259M62.8365 20.3555C62.1258 20.3555 61.4553 20.4694 60.8519 20.6974C60.2351 20.9254 59.692 21.2606 59.2361 21.6964C58.7801 22.1322 58.4181 22.6619 58.1633 23.272C57.9152 23.8821 57.7878 24.5593 57.7878 25.2968C57.7878 26.0344 57.9152 26.7115 58.1633 27.3217C58.4181 27.9318 58.7734 28.4615 59.2293 28.8973C59.6853 29.3264 60.2284 29.6616 60.8452 29.8963C61.4553 30.1242 62.1191 30.2382 62.8365 30.2382C63.4801 30.2382 64.1171 30.1712 64.7339 30.0371C65.3642 29.903 65.981 29.6817 66.5576 29.38L66.9197 29.1923V23.8754H65.344L66.5777 22.5345L67.0269 22.0451L66.5375 21.5891C66.048 21.1332 65.4714 20.8114 64.8278 20.6304C64.2244 20.456 63.5539 20.3689 62.8499 20.3689L62.8365 20.3555ZM62.8365 27.2345C62.5415 27.2345 62.2867 27.1876 62.0587 27.0937C61.8308 26.9998 61.6498 26.8724 61.4888 26.7048C61.3279 26.5372 61.2072 26.3428 61.1201 26.1081C61.0262 25.8667 60.986 25.5918 60.986 25.2901C60.986 24.9884 61.0329 24.7202 61.1201 24.4789C61.2072 24.2375 61.3279 24.0431 61.4888 23.8754C61.6498 23.7078 61.8375 23.5804 62.0587 23.4866C62.2867 23.3927 62.5482 23.3458 62.8365 23.3458C63.1985 23.3458 63.5003 23.3927 63.7215 23.4866C63.9294 23.5737 64.1104 23.6944 64.278 23.862H62.394V26.8523H63.8489V27.0602C63.7886 27.0803 63.7215 27.1071 63.641 27.1272C63.4265 27.1943 63.1516 27.2278 62.8298 27.2278L62.8365 27.2345Z" fill="white"/>
<path d="M72.0824 29.6751L70.3861 26.43H70.0441V29.6751H67.5835V20.8853H71.0632C71.499 20.8853 71.9147 20.9255 72.3103 21.0126C72.7193 21.0998 73.0881 21.254 73.4032 21.4619C73.725 21.6764 73.9865 21.9781 74.1809 22.3402C74.3687 22.7089 74.4625 23.1581 74.4625 23.6811C74.4625 24.3248 74.2882 24.888 73.9463 25.3439C73.6848 25.6992 73.3294 25.954 72.8869 26.1149L75.0257 29.6684H72.0824V29.6751ZM70.7615 24.2443C70.9157 24.2443 71.0766 24.2443 71.251 24.2242C71.3918 24.2175 71.5259 24.1907 71.6398 24.1437C71.727 24.1102 71.8008 24.0566 71.8611 23.9828C71.908 23.9225 71.9349 23.8152 71.9349 23.6744C71.9349 23.5403 71.9147 23.433 71.8678 23.3727C71.8142 23.2989 71.7538 23.2453 71.6734 23.2051C71.5795 23.1582 71.4588 23.1246 71.3314 23.1045C71.1772 23.0844 71.0297 23.071 70.8822 23.071H70.0441V24.2443H70.7615Z" fill="#414042"/>
<path d="M71.0565 21.2204C71.4722 21.2204 71.8611 21.2606 72.2299 21.3411C72.5986 21.4215 72.9271 21.5556 73.202 21.7434C73.4769 21.9311 73.7049 22.1859 73.8658 22.501C74.0267 22.8161 74.1139 23.2117 74.1139 23.6877C74.1139 24.2643 73.9664 24.7471 73.6647 25.1493C73.3629 25.5516 72.9338 25.8064 72.3572 25.9137L74.4223 29.3465H72.2768L70.5805 26.1014H69.6955V29.3465H67.9053V21.2271H71.0498M69.6955 24.5862H70.7481C70.909 24.5862 71.0766 24.5862 71.2577 24.566C71.4387 24.5526 71.5996 24.5191 71.7471 24.4655C71.8946 24.4051 72.0153 24.318 72.1092 24.1973C72.203 24.0766 72.25 23.9023 72.25 23.681C72.25 23.4732 72.2097 23.3123 72.1226 23.1849C72.0421 23.0642 71.9281 22.9703 71.8007 22.9033C71.6667 22.8362 71.5192 22.796 71.3515 22.7692C71.1839 22.7491 71.0163 22.7357 70.8554 22.7357H69.6821V24.5794M71.0364 20.5499H67.2214V30.0103H70.3525V27.1339L71.6667 29.6482L71.8544 30.0103H75.5889L74.9788 28.9911L73.3428 26.269C73.6781 26.088 73.9597 25.8466 74.1876 25.5449C74.5698 25.0287 74.7642 24.3984 74.7642 23.681C74.7642 23.1044 74.657 22.6016 74.4424 22.1859C74.2211 21.7635 73.9261 21.4282 73.5574 21.1802C73.2087 20.9455 72.8065 20.7779 72.3505 20.6773C71.9348 20.5901 71.4923 20.5432 71.0297 20.5432L71.0364 20.5499ZM70.3525 23.4061H70.8554C70.9828 23.4061 71.1169 23.4128 71.2577 23.4329C71.3515 23.4464 71.432 23.4665 71.499 23.5C71.5259 23.5134 71.546 23.5335 71.5661 23.5603C71.5661 23.5603 71.5728 23.5939 71.5728 23.6743C71.5728 23.7615 71.5594 23.795 71.5594 23.795C71.5527 23.8017 71.5259 23.8218 71.4923 23.8352C71.4119 23.8687 71.318 23.8822 71.2107 23.8889C71.0431 23.9023 70.8889 23.9023 70.7414 23.9023H70.3592V23.3994L70.3525 23.4061Z" fill="white"/>
<path d="M77.5667 20.885H75.1061V29.6749H77.5667V20.885Z" fill="#414042"/>
<path d="M77.2315 21.2203V29.3397H75.4413V21.2203H77.2315ZM77.902 20.5498H74.7709V30.0101H77.902V20.5498Z" fill="white"/>
<path d="M84.4122 29.6749L83.715 27.9518H81.013L80.3358 29.6749H77.6271L81.4286 20.885H83.3462L87.1679 29.6749H84.4122ZM82.8366 25.7727L82.3338 24.4988L81.8376 25.7727H82.8366Z" fill="#414042"/>
<path d="M83.125 21.2203L86.6584 29.3397H84.6403L83.943 27.6166H80.7918L80.1146 29.3397H78.1434L81.65 21.2203H83.1317M81.3549 26.108H83.3395L82.3405 23.587L81.3549 26.108ZM83.5742 20.5498H81.2141L81.0398 20.9521L77.5333 29.0715L77.131 30.0101H80.5839L80.7515 29.5878L81.2611 28.2937H83.5072L84.0368 29.5945L84.2044 30.0101H87.6976L87.2886 29.0715L83.7552 20.9521L83.5809 20.5498H83.5742ZM82.3405 25.4375V25.4174L82.3539 25.4375H82.3405Z" fill="white"/>
<path d="M94.6369 29.6749V25.0553L93.0546 29.6749H91.2108L89.7089 25.1291V29.6749H87.2483V20.885H90.5269L92.1762 25.5448L93.8256 20.885H97.0975V29.6749H94.6369Z" fill="#414042"/>
<path d="M96.7623 21.2203V29.3397H94.9721V23.111H94.9453L92.8132 29.3397H91.4455L89.3938 23.111H89.3737V29.3397H87.5836V21.2203H90.2923L92.1629 26.517H92.183L94.067 21.2203H96.7623ZM97.4328 20.5498H93.591L93.4301 20.999L92.1696 24.5458L90.9158 20.999L90.7549 20.5498H86.9064V30.0101H90.0375V27.221L90.8085 29.5542L90.9627 30.0169H93.2893L93.4435 29.5609L94.295 27.0735V30.0169H97.4261V20.5565L97.4328 20.5498Z" fill="white"/>
<path d="M103.963 29.6749L103.266 27.9518H100.564L99.8867 29.6749H97.178L100.98 20.885H102.897L106.719 29.6749H103.963ZM102.388 25.7727L101.885 24.4988L101.389 25.7727H102.388Z" fill="#414042"/>
<path d="M102.676 21.2203L106.209 29.3397H104.191L103.494 27.6166H100.343L99.6655 29.3397H97.6943L101.201 21.2203H102.683M100.906 26.108H102.89L101.891 23.587L100.906 26.108ZM103.125 20.5498H100.765L100.591 20.9521L97.0842 29.0715L96.6819 30.0101H100.135L100.302 29.5878L100.812 28.2937H103.058L103.588 29.5945L103.755 30.0101H107.249L106.84 29.0715L103.306 20.9521L103.132 20.5498H103.125ZM101.891 25.4375V25.4174L101.905 25.4375H101.891Z" fill="white"/>
<path d="M106.377 29.6749V27.5629L110.111 23.1378H106.531V20.885H113.336V22.9232L109.676 27.3551H113.47V29.6749H106.377Z" fill="#414042"/>
<path d="M113.001 21.2203V22.8026L108.965 27.6903H113.142V29.3397H106.719V27.6903L110.835 22.8026H106.866V21.2203H113.001ZM113.672 20.5498H106.196V23.4731H109.394L106.203 27.2545L106.042 27.4422V30.0101H113.806V27.0198H110.386L113.517 23.2317L113.672 23.044V20.5498Z" fill="white"/>
<path d="M116.581 20.885H114.121V29.6749H116.581V20.885Z" fill="#414042"/>
<path d="M116.246 21.2203V29.3397H114.456V21.2203H116.246ZM116.917 20.5498H113.786V30.0101H116.917V20.5498Z" fill="white"/>
<path d="M123.159 29.6749L120.115 24.7067V29.6749H117.654V20.885H120.611L123.561 25.7057V20.885H126.022V29.6749H123.159Z" fill="#414042"/>
<path d="M125.686 21.2203V29.3397H123.347L119.8 23.5602H119.78V29.3397H117.989V21.2203H120.423L123.876 26.8656H123.896V21.2203H125.686ZM126.357 20.5498H123.226V24.519L120.993 20.8716L120.799 20.5498H117.319V30.0101H120.45V25.9002L122.777 29.695L122.971 30.0169H126.357V20.5565V20.5498Z" fill="white"/>
<path d="M131.399 29.8829C130.728 29.8829 130.098 29.7756 129.528 29.5611C128.952 29.3465 128.449 29.0381 128.026 28.6358C127.604 28.2336 127.269 27.7441 127.034 27.1742C126.8 26.611 126.679 25.9674 126.679 25.2768C126.679 24.5862 126.8 23.9493 127.034 23.3794C127.269 22.8095 127.604 22.32 128.026 21.9177C128.449 21.5154 128.952 21.207 129.528 20.9925C130.098 20.7779 130.728 20.6707 131.399 20.6707C132.069 20.6707 132.713 20.7511 133.29 20.9187C133.886 21.0863 134.416 21.3881 134.865 21.8038L135.113 22.0317L133.384 23.9157L133.135 23.661C132.928 23.4397 132.686 23.2721 132.418 23.1648C132.157 23.0508 131.815 22.9972 131.406 22.9972C131.07 22.9972 130.762 23.0508 130.494 23.1648C130.232 23.2788 129.998 23.433 129.81 23.6341C129.622 23.8353 129.475 24.0766 129.374 24.3515C129.267 24.6331 129.213 24.9483 129.213 25.2768C129.213 25.6053 129.267 25.9338 129.367 26.2087C129.468 26.4836 129.615 26.725 129.81 26.9194C129.998 27.1206 130.226 27.2748 130.494 27.3888C130.762 27.5028 131.064 27.5564 131.406 27.5564C131.761 27.5564 132.069 27.5162 132.317 27.4424C132.485 27.3888 132.633 27.3351 132.76 27.2815V26.5105H131.305V24.1906H135.154V28.9711L134.973 29.0649C134.423 29.3532 133.839 29.5611 133.236 29.6952C132.646 29.8226 132.029 29.8829 131.412 29.8829H131.399Z" fill="#414042"/>
<path d="M131.399 21.0125C132.049 21.0125 132.646 21.093 133.196 21.2472C133.739 21.4014 134.222 21.6763 134.637 22.0585L133.377 23.4329C133.129 23.1782 132.854 22.9904 132.552 22.8563C132.244 22.7289 131.862 22.6619 131.406 22.6619C131.023 22.6619 130.675 22.7289 130.366 22.8563C130.058 22.9837 129.79 23.1647 129.568 23.3994C129.347 23.6341 129.173 23.909 129.059 24.2308C128.938 24.5526 128.878 24.9013 128.878 25.2767C128.878 25.6522 128.938 26.0075 129.059 26.3294C129.18 26.6445 129.347 26.9194 129.568 27.154C129.79 27.3887 130.058 27.5697 130.366 27.6971C130.675 27.8245 131.023 27.8916 131.406 27.8916C131.788 27.8916 132.13 27.8446 132.418 27.7575C132.7 27.6703 132.928 27.5831 133.095 27.4893V26.1684H131.64V24.5191H134.818V28.7632C134.289 29.0381 133.739 29.2392 133.169 29.3599C132.599 29.4806 132.009 29.5409 131.412 29.5409C130.775 29.5409 130.192 29.4403 129.656 29.2459C129.119 29.0448 128.657 28.7632 128.268 28.3944C127.879 28.0257 127.57 27.5764 127.356 27.0468C127.135 26.5171 127.027 25.9271 127.027 25.2834C127.027 24.6398 127.135 24.0431 127.356 23.5201C127.57 22.9904 127.879 22.5412 128.268 22.1724C128.657 21.8037 129.119 21.5154 129.656 21.3209C130.192 21.1198 130.775 21.0259 131.412 21.0259M131.412 20.3555C130.702 20.3555 130.031 20.4694 129.428 20.6974C128.811 20.9254 128.268 21.2606 127.812 21.6964C127.356 22.1322 126.994 22.6619 126.739 23.272C126.491 23.8821 126.364 24.5593 126.364 25.2968C126.364 26.0344 126.491 26.7115 126.739 27.3217C126.994 27.9318 127.349 28.4615 127.805 28.8973C128.261 29.3264 128.804 29.6616 129.421 29.8963C130.031 30.1242 130.695 30.2382 131.412 30.2382C132.056 30.2382 132.693 30.1712 133.31 30.0371C133.94 29.903 134.557 29.6817 135.133 29.38L135.495 29.1923V23.8754H133.92L135.154 22.5345L135.603 22.0451L135.113 21.5891C134.624 21.1332 134.047 20.8114 133.404 20.6304C132.8 20.456 132.13 20.3689 131.426 20.3689L131.412 20.3555ZM131.412 27.2345C131.117 27.2345 130.863 27.1876 130.635 27.0937C130.407 26.9998 130.226 26.8724 130.065 26.7048C129.904 26.5372 129.783 26.3428 129.696 26.1081C129.602 25.8667 129.562 25.5918 129.562 25.2901C129.562 24.9884 129.609 24.7202 129.696 24.4789C129.783 24.2375 129.904 24.0431 130.065 23.8754C130.226 23.7078 130.413 23.5804 130.635 23.4866C130.863 23.3927 131.124 23.3458 131.412 23.3458C131.774 23.3458 132.076 23.3927 132.297 23.4866C132.505 23.5737 132.686 23.6944 132.854 23.862H130.97V26.8523H132.425V27.0602C132.364 27.0803 132.297 27.1071 132.217 27.1272C132.002 27.1943 131.727 27.2278 131.406 27.2278L131.412 27.2345Z" fill="white"/>
<path d="M51.0295 37.0838L50.6808 36.239H49.4136L49.0583 37.0838H47.8582L49.6684 32.9805H50.4931L52.2363 37.0838H51.0295ZM50.2517 35.193L50.0573 34.7103L49.8495 35.193H50.2517Z" fill="#EF4136"/>
<path d="M50.2719 33.3157L51.7335 36.7485H51.2575L50.9088 35.9038H49.1924L48.8371 36.7485H48.3745L49.8897 33.3157H50.2719ZM49.3466 35.5283H50.7479L50.0707 33.8387H50.064L49.3533 35.5283M50.7211 32.6453H49.4539L49.2796 33.0475L47.7643 36.4804L47.3486 37.419H49.2796L49.4539 37.01L49.6349 36.5742H50.4596L50.6406 37.0033L50.815 37.419H52.7526L52.357 36.4871L50.8954 33.0543L50.7211 32.6453Z" fill="white"/>
<path d="M53.8656 37.1709C53.5572 37.1709 53.2621 37.1173 53.0074 37.0167C52.7459 36.9161 52.5112 36.7686 52.3168 36.5742C52.1223 36.3865 51.9681 36.1518 51.8609 35.8903C51.7536 35.6288 51.7 35.3405 51.7 35.0321C51.7 34.7237 51.7536 34.422 51.8676 34.1605C51.9815 33.899 52.1425 33.6711 52.3436 33.4833C52.5447 33.2956 52.7727 33.1548 53.0342 33.0475C53.2957 32.9469 53.5773 32.8933 53.879 32.8933C54.1405 32.8933 54.3952 32.9335 54.6366 33.014C54.8981 33.1012 55.1328 33.242 55.3339 33.4431L55.5619 33.6778L54.7841 34.489L54.5427 34.2275C54.4623 34.1404 54.3617 34.0666 54.241 34.0197C54.1136 33.9661 53.9863 33.9392 53.8589 33.9392C53.7114 33.9392 53.5706 33.9661 53.4432 34.0197C53.3158 34.0733 53.2085 34.1471 53.1146 34.241C53.0208 34.3348 52.947 34.4488 52.9001 34.5829C52.8465 34.717 52.8196 34.8645 52.8196 35.0321C52.8196 35.1997 52.8465 35.3405 52.9001 35.4746C52.9537 35.6087 53.0275 35.7227 53.1214 35.8166C53.2152 35.9104 53.3225 35.9842 53.4566 36.0378C53.5907 36.0915 53.7449 36.1183 53.9058 36.1183C54.0198 36.1183 54.1405 36.1049 54.2679 36.078C54.3215 36.0646 54.3751 36.0512 54.4221 36.0378V35.5417H53.6309V34.4957H55.5015V36.715L55.3272 36.8089C55.1059 36.9362 54.8646 37.0301 54.6165 37.0838C54.3751 37.1374 54.1271 37.1709 53.879 37.1709H53.8656Z" fill="#EF4136"/>
<path d="M53.879 33.2286C54.107 33.2286 54.3215 33.2621 54.5294 33.3291C54.7372 33.3962 54.9249 33.5169 55.0859 33.6778L54.7774 33.9996C54.6635 33.8722 54.5227 33.7784 54.355 33.7113C54.1874 33.6443 54.0198 33.6107 53.8455 33.6107C53.651 33.6107 53.4633 33.6443 53.2957 33.718C53.1281 33.7918 52.9806 33.8856 52.8599 34.013C52.7325 34.1404 52.6386 34.2879 52.5716 34.4622C52.5045 34.6366 52.4643 34.8243 52.4643 35.0321C52.4643 35.24 52.4978 35.4277 52.5716 35.602C52.6386 35.7764 52.7392 35.9306 52.8599 36.058C52.9806 36.1854 53.1348 36.2859 53.3091 36.3597C53.4834 36.4334 53.6779 36.4669 53.8857 36.4669C54.0265 36.4669 54.1673 36.4468 54.3215 36.4133C54.4757 36.3798 54.6098 36.3329 54.7372 36.2658V35.2132H53.946V34.8377H55.1462V36.5273C54.9518 36.6346 54.7439 36.7217 54.5227 36.7687C54.3014 36.8223 54.0869 36.8491 53.8589 36.8491C53.5907 36.8491 53.3426 36.8089 53.1214 36.715C52.9001 36.6279 52.7057 36.5072 52.5381 36.3463C52.3771 36.1854 52.2498 35.9976 52.1559 35.7764C52.062 35.5551 52.0218 35.307 52.0218 35.0388C52.0218 34.7707 52.0687 34.5226 52.1626 34.3013C52.2565 34.0801 52.3906 33.8923 52.5582 33.7314C52.7258 33.5772 52.9202 33.4498 53.1482 33.3627C53.3694 33.2755 53.6108 33.2286 53.8723 33.2286M53.8723 32.5581C53.5304 32.5581 53.2018 32.6184 52.9068 32.7391C52.6051 32.8531 52.3369 33.0274 52.109 33.242C51.8743 33.4632 51.6866 33.7314 51.5525 34.0331C51.4184 34.3349 51.358 34.6768 51.358 35.0388C51.358 35.4009 51.4184 35.7294 51.5458 36.0311C51.6732 36.3396 51.8475 36.6077 52.0821 36.829C52.3101 37.0503 52.5783 37.2246 52.8867 37.3386C53.1817 37.4525 53.5169 37.5129 53.8656 37.5129C54.1405 37.5129 54.4154 37.4794 54.6836 37.419C54.9585 37.352 55.2266 37.2514 55.4814 37.1106L55.8234 36.9162V34.1672H55.5619L55.5753 34.1538L56.0245 33.6778L55.5619 33.2152C55.3205 32.9738 55.0456 32.7995 54.7372 32.6989C54.4623 32.6117 54.174 32.5648 53.879 32.5648L53.8723 32.5581ZM53.2756 35.5082C53.2421 35.4612 53.2152 35.4076 53.1884 35.3473C53.1482 35.2534 53.1281 35.1461 53.1281 35.0254C53.1281 34.9048 53.1482 34.7975 53.1817 34.7036C53.2085 34.6433 53.2353 34.5896 53.2689 34.5427V35.5015L53.2756 35.5082Z" fill="white"/>
<path d="M57.7275 37.084L56.7955 35.5419V37.084H55.7161V32.9807H56.9296C57.1106 32.9807 57.285 32.9941 57.4593 33.0142C57.6604 33.0344 57.8415 33.088 58.0091 33.1752C58.1901 33.269 58.3443 33.4031 58.4583 33.5774C58.579 33.7585 58.6326 33.9864 58.6326 34.268C58.6326 34.61 58.5253 34.8916 58.3108 35.1128C58.2102 35.2134 58.0895 35.3005 57.9554 35.3676L59.0148 37.0907H57.7275V37.084ZM56.8223 34.496C56.9296 34.496 57.0436 34.496 57.1576 34.4893C57.2447 34.4893 57.3319 34.4692 57.3989 34.4423C57.4459 34.4289 57.4794 34.4021 57.5062 34.3686C57.5062 34.3686 57.5263 34.3418 57.5263 34.2613C57.5263 34.1809 57.5062 34.1473 57.5062 34.1473C57.4861 34.1205 57.4727 34.1071 57.4459 34.0937C57.3989 34.0669 57.3453 34.0535 57.285 34.0468C57.2045 34.0334 57.1173 34.0334 57.0302 34.0334H56.7955V34.496H56.8223Z" fill="#EF4136"/>
<path d="M56.9296 33.3158C57.0973 33.3158 57.2582 33.3226 57.4191 33.3427C57.58 33.3628 57.7275 33.403 57.8549 33.4701C57.9823 33.5371 58.0896 33.631 58.17 33.7517C58.2505 33.879 58.2907 34.0467 58.2907 34.2612C58.2907 34.516 58.2169 34.7171 58.0627 34.8713C57.9085 35.0255 57.7007 35.1261 57.4325 35.1663L58.4047 36.7487H57.9085L56.9766 35.2066H56.4536V36.7487H56.0446V33.3158H56.9229M56.4536 34.8311H56.8157C56.9296 34.8311 57.0436 34.8311 57.1643 34.8244C57.285 34.8177 57.399 34.7976 57.4995 34.7641C57.6001 34.7305 57.6873 34.6702 57.7543 34.5964C57.8214 34.5227 57.8549 34.4087 57.8549 34.2679C57.8549 34.1472 57.8281 34.0467 57.7811 33.9729C57.7342 33.8992 57.6672 33.8388 57.5867 33.7986C57.5062 33.7584 57.4191 33.7315 57.3185 33.7181C57.2179 33.7047 57.1174 33.698 57.0235 33.698H56.4536V34.8311ZM56.9229 32.6454H55.3741V37.4191H57.1241V36.7487L57.3319 37.0973L57.5264 37.4191H59.6048L58.9746 36.4L58.398 35.4681C58.4449 35.4278 58.4918 35.3876 58.5388 35.3407C58.8137 35.0591 58.9612 34.6836 58.9612 34.2612C58.9612 33.9193 58.8874 33.6243 58.7332 33.3896C58.5857 33.1616 58.3913 32.9873 58.1566 32.8666C57.9555 32.7661 57.7342 32.7057 57.4928 32.6722C57.3051 32.6521 57.1107 32.6387 56.9229 32.6387V32.6454Z" fill="white"/>
<path d="M59.8126 32.9805H58.7332V37.0838H59.8126V32.9805Z" fill="#EF4136"/>
<path d="M59.4707 33.3157V36.7485H59.0617V33.3157H59.4707ZM60.1412 32.6453H58.3912V37.419H60.1412V32.6453Z" fill="white"/>
<path d="M62.6353 37.0838L62.2867 36.239H61.0195L60.6641 37.0838H59.464L61.2743 32.9805H62.0989L63.8422 37.0838H62.6353ZM61.8576 35.193L61.6631 34.7103L61.4553 35.193H61.8576Z" fill="#EF4136"/>
<path d="M61.871 33.3157L63.3326 36.7485H62.8566L62.508 35.9038H60.7915L60.4362 36.7485H59.9736L61.4888 33.3157H61.871ZM60.9458 35.5283H62.347L61.6699 33.8387H61.6632L60.9525 35.5283M62.3202 32.6453H61.053L60.8787 33.0475L59.3634 36.4804L58.9478 37.419H60.8787L61.053 37.01L61.2341 36.5742H62.0587L62.2398 37.0033L62.4141 37.419H64.3518L63.9562 36.4871L62.4945 33.0543L62.3202 32.6453Z" fill="white"/>
<path d="M66.638 37.0838V35.4813L65.9542 37.0838H65.2636L64.5797 35.4813V37.0838H63.5002V32.9805H64.6602L65.6122 35.1796L66.571 32.9805H67.7175V37.0838H66.638Z" fill="#EF4136"/>
<path d="M67.3823 33.3157V36.7485H66.9733V33.8655H66.9666L65.7329 36.7485H65.4849L64.2512 33.8655H64.2445V36.7485H63.8355V33.3157H64.4389L65.6055 36.0043H65.6123L66.7856 33.3157H67.3756M68.0461 32.6453H66.3431L66.1687 33.0475L65.6055 34.3349L65.0491 33.0475L64.8747 32.6453H63.1583V37.419H64.9083V37.1173L65.0356 37.419H66.1687L66.2961 37.1173V37.419H68.0461V32.6453Z" fill="white"/>
<path d="M70.5402 37.0838L70.1916 36.239H68.9244L68.569 37.0838H67.3689L69.1792 32.9805H70.0038L71.7471 37.0838H70.5402ZM69.7625 35.193L69.568 34.7103L69.3602 35.193H69.7625Z" fill="#EF4136"/>
<path d="M69.7826 33.3157L71.2443 36.7485H70.7682L70.4196 35.9038H68.7032L68.3478 36.7485H67.8852L69.4005 33.3157H69.7826ZM68.8574 35.5283H70.2587L69.5815 33.8387H69.5748L68.8641 35.5283M70.2318 32.6453H68.9647L68.7903 33.0475L67.2751 36.4804L66.8594 37.419H68.7903L68.9647 37.01L69.1457 36.5742H69.9704L70.1514 37.0033L70.3257 37.419H72.2634L71.8678 36.4871L70.4062 33.0543L70.2318 32.6453Z" fill="white"/>
<path d="M71.1235 37.0838V36.2725L72.7796 34.0264H71.1571V32.9805H74.2747V33.7716L72.6187 36.0378H74.3016V37.0838H71.1235Z" fill="#EF4136"/>
<path d="M73.9395 33.3156V33.6643L71.9549 36.373H73.9597V36.7484H71.4588V36.3864L73.4434 33.6978H71.4856V33.3223H73.9328M74.6033 32.6519H70.8151V34.3683H72.1159L70.9224 35.9908L70.7883 36.1651V37.4189H74.6301V35.7025H73.2758L74.4759 34.0665L74.6033 33.8922V32.6519Z" fill="white"/>
<path d="M75.3207 32.9805H74.2412V37.0838H75.3207V32.9805Z" fill="#EF4136"/>
<path d="M74.9855 33.3157V36.7485H74.5765V33.3157H74.9855ZM75.6559 32.6453H73.906V37.419H75.6559V32.6453Z" fill="white"/>
<path d="M78.1165 37.0838L76.6281 34.9517V37.0838H75.5553V32.9805H76.5744L78.0629 35.1126V32.9805H79.1423V37.0838H78.1165Z" fill="#EF4136"/>
<path d="M78.8071 33.3157V36.7485H78.2908L76.3062 33.899H76.2928V36.7485H75.8838V33.3157H76.4001L78.3847 36.1652H78.3914V33.3157H78.8004M79.4709 32.6453H77.7209V34.0465L76.9432 32.9336L76.742 32.6453H75.2067V37.419H76.9566V36.0177L77.7343 37.1307L77.9355 37.419H79.4709V32.6453Z" fill="white"/>
<path d="M81.3414 37.1709C81.033 37.1709 80.7447 37.1173 80.4832 37.0167C80.2217 36.9161 79.9871 36.7686 79.7926 36.5742C79.5982 36.3865 79.444 36.1585 79.3367 35.8903C79.2294 35.6288 79.1758 35.3405 79.1758 35.0321C79.1758 34.7237 79.2361 34.422 79.3434 34.1605C79.4574 33.899 79.6183 33.6711 79.8194 33.4833C80.0206 33.2956 80.2552 33.1481 80.5167 33.0475C80.7782 32.9469 81.0598 32.8933 81.3615 32.8933C81.623 32.8933 81.8778 32.9335 82.1192 33.014C82.3806 33.1012 82.6086 33.242 82.8164 33.4431L83.0444 33.6778L82.2667 34.489L82.0253 34.2275C81.9448 34.1404 81.8443 34.0666 81.7169 34.0197C81.5895 33.9661 81.4621 33.9392 81.3347 33.9392C81.1872 33.9392 81.0464 33.9661 80.919 34.0197C80.7916 34.0733 80.6843 34.1471 80.5905 34.241C80.4966 34.3348 80.4229 34.4488 80.3692 34.5829C80.3156 34.717 80.2888 34.8645 80.2888 35.0321C80.2888 35.1997 80.3156 35.3405 80.3692 35.4746C80.4229 35.6087 80.4966 35.7227 80.5905 35.8166C80.6843 35.9104 80.7916 35.9842 80.9257 36.0378C81.0598 36.0915 81.214 36.1183 81.3749 36.1183C81.4889 36.1183 81.6096 36.1049 81.737 36.078C81.7906 36.0646 81.8443 36.0512 81.8912 36.0378V35.5417H81.1V34.4957H82.9706V36.715L82.7963 36.8089C82.5751 36.9362 82.3337 37.0234 82.0856 37.0838C81.8443 37.1441 81.5962 37.1709 81.3481 37.1709H81.3414Z" fill="#EF4136"/>
<path d="M81.3616 33.2286C81.5895 33.2286 81.8041 33.2621 82.0119 33.3291C82.2198 33.3962 82.4075 33.5169 82.5684 33.6778L82.26 33.9996C82.146 33.8722 82.0052 33.7784 81.8376 33.7113C81.67 33.6443 81.5024 33.6107 81.328 33.6107C81.1336 33.6107 80.9459 33.6443 80.7782 33.718C80.6106 33.7918 80.4631 33.8856 80.3424 34.013C80.2151 34.1404 80.1212 34.2879 80.0541 34.4622C79.9871 34.6366 79.9469 34.8243 79.9469 35.0321C79.9469 35.24 79.9804 35.4277 80.0541 35.602C80.1212 35.7764 80.2218 35.9306 80.3424 36.058C80.4698 36.1854 80.6173 36.2859 80.7917 36.3597C80.966 36.4334 81.1604 36.4669 81.3683 36.4669C81.5091 36.4669 81.6499 36.4468 81.8041 36.4133C81.9583 36.3798 82.0924 36.3329 82.2198 36.2658V35.2132H81.4286V34.8377H82.6287V36.5273C82.4343 36.6346 82.2265 36.7217 82.0052 36.7687C81.784 36.8223 81.5694 36.8491 81.3414 36.8491C81.0733 36.8491 80.8252 36.8089 80.6039 36.715C80.3827 36.6279 80.1882 36.5072 80.0273 36.3463C79.8664 36.1854 79.739 35.9976 79.6452 35.7764C79.5513 35.5551 79.5111 35.307 79.5111 35.0388C79.5111 34.7707 79.558 34.5226 79.6519 34.3013C79.7457 34.0801 79.8798 33.8923 80.0474 33.7314C80.2151 33.5772 80.4095 33.4498 80.6374 33.3627C80.8587 33.2755 81.1001 33.2286 81.3616 33.2286ZM81.3616 32.5581C81.0196 32.5581 80.6911 32.6184 80.3961 32.7391C80.1011 32.8531 79.8262 33.0207 79.5982 33.2353C79.3636 33.4565 79.1758 33.7247 79.0417 34.0331C78.9143 34.3349 78.8473 34.6768 78.8473 35.0388C78.8473 35.4009 78.9076 35.7227 79.035 36.0244C79.1624 36.3329 79.3434 36.601 79.5714 36.8223C79.7994 37.0436 80.0675 37.2112 80.3693 37.3319C80.6643 37.4458 80.9995 37.5062 81.3481 37.5062C81.623 37.5062 81.8979 37.4727 82.1661 37.4123C82.441 37.3453 82.7092 37.2447 82.964 37.1039L83.3059 36.9095V34.1605H83.0444L83.0578 34.1471L83.5071 33.6711L83.0444 33.2085C82.8031 32.9671 82.5282 32.7928 82.2198 32.6922C81.9449 32.605 81.6566 32.5581 81.3616 32.5581ZM80.7648 35.5082C80.7313 35.4612 80.7045 35.4076 80.6777 35.3473C80.6374 35.2534 80.624 35.1461 80.624 35.0254C80.624 34.9048 80.6442 34.7975 80.6777 34.7036C80.7045 34.6433 80.7313 34.5896 80.7648 34.5427V35.5015V35.5082Z" fill="white"/>
<path d="M83.7753 37.1106C83.6144 37.1106 83.4669 37.0503 83.3462 36.9363C83.2188 36.8156 83.1517 36.6614 83.1517 36.4871C83.1517 36.3127 83.2121 36.1652 83.3328 36.0446C83.4534 35.9239 83.6077 35.8635 83.7753 35.8635C83.9429 35.8635 84.0971 35.9239 84.2178 36.0446C84.3385 36.1652 84.3988 36.3194 84.3988 36.4871C84.3988 36.6547 84.3318 36.8156 84.2044 36.9363C84.0837 37.0503 83.9362 37.1106 83.7753 37.1106Z" fill="#EF4136"/>
<path d="M83.7753 36.1988C83.8558 36.1988 83.9228 36.2256 83.9832 36.286C84.0368 36.3396 84.0703 36.4133 84.0703 36.4938C84.0703 36.5743 84.0435 36.6413 83.9832 36.7016C83.9228 36.7553 83.8558 36.7888 83.782 36.7888C83.7083 36.7888 83.6412 36.762 83.5809 36.7016C83.5205 36.648 83.4937 36.5743 83.4937 36.4938C83.4937 36.4133 83.5205 36.3463 83.5809 36.286C83.6345 36.2323 83.7083 36.1988 83.7887 36.1988M83.7887 35.5283C83.534 35.5283 83.2926 35.6289 83.1116 35.8099C82.9305 35.9976 82.83 36.2323 82.83 36.4871C82.83 36.7419 82.9372 36.9967 83.1317 37.1777C83.3127 37.352 83.5474 37.4459 83.7954 37.4459C84.0435 37.4459 84.2715 37.352 84.4592 37.1777C84.6536 36.9967 84.7609 36.7486 84.7609 36.4871C84.7609 36.2256 84.6603 35.9909 84.4793 35.8099C84.2983 35.6289 84.0569 35.5283 83.7954 35.5283H83.7887Z" fill="white"/>
<path d="M86.4772 37.1709C86.1889 37.1709 85.9141 37.1173 85.6593 37.01C85.4045 36.9027 85.1832 36.7485 84.9955 36.5608C84.8078 36.3663 84.6603 36.1384 84.553 35.8836C84.4457 35.6221 84.3921 35.3405 84.3921 35.0321C84.3921 34.7237 84.4457 34.4622 84.5463 34.2007C84.6469 33.9392 84.7944 33.7113 84.9754 33.5168C85.1631 33.3224 85.3844 33.1682 85.6392 33.0609C85.8939 32.9469 86.1755 32.8933 86.4772 32.8933C86.7521 32.8933 87.0203 32.9402 87.2684 33.0408C87.5433 33.1481 87.7713 33.3224 87.9523 33.5638L88.1601 33.8387L87.2617 34.489L87.0606 34.2208C86.9935 34.127 86.9064 34.0599 86.8058 34.013C86.6985 33.9661 86.5845 33.9392 86.4705 33.9392C86.3297 33.9392 86.2091 33.9661 86.0884 34.0197C85.9677 34.08 85.8671 34.1538 85.78 34.2544C85.6928 34.3549 85.6258 34.4689 85.5721 34.603C85.5185 34.7371 85.4984 34.8779 85.4984 35.0254C85.4984 35.1863 85.5252 35.3338 85.5721 35.4679C85.6258 35.602 85.6861 35.716 85.7733 35.8099C85.8604 35.9037 85.961 35.9775 86.075 36.0311C86.189 36.0848 86.3163 36.1116 86.4638 36.1116C86.6248 36.1116 86.7589 36.0848 86.8795 36.0244C87.0002 35.9641 87.1075 35.8769 87.2014 35.7562L87.4159 35.488L88.2272 36.1719L88.0394 36.4267C87.8517 36.6815 87.6171 36.8692 87.3489 36.9899C87.0874 37.1039 86.7924 37.1642 86.4772 37.1642V37.1709Z" fill="#EF4136"/>
<path d="M86.4773 33.2285C86.712 33.2285 86.9332 33.2687 87.1478 33.3559C87.3623 33.443 87.5433 33.5771 87.6909 33.7715L87.3355 34.0263C87.2349 33.8855 87.1075 33.785 86.9533 33.7112C86.7991 33.6442 86.6449 33.6039 86.4773 33.6039C86.2896 33.6039 86.1085 33.6442 85.9543 33.7179C85.7934 33.7984 85.6526 33.8989 85.5386 34.033C85.4247 34.1671 85.3308 34.3146 85.2705 34.4889C85.2034 34.6633 85.1699 34.8443 85.1699 35.032C85.1699 35.2332 85.2034 35.4209 85.2705 35.5952C85.3375 35.7695 85.4247 35.9171 85.5386 36.0444C85.6526 36.1718 85.7934 36.2724 85.9543 36.3462C86.1152 36.4199 86.2896 36.4601 86.484 36.4601C86.6919 36.4601 86.8796 36.4199 87.0472 36.3394C87.2148 36.259 87.3556 36.1383 87.4763 35.9841L87.7847 36.2389C87.6305 36.4467 87.4428 36.6009 87.2215 36.6948C87.0003 36.7887 86.7589 36.8423 86.484 36.8423C86.2359 36.8423 86.008 36.7954 85.7934 36.7082C85.5789 36.621 85.3911 36.4937 85.2369 36.3327C85.0827 36.1718 84.9553 35.9841 84.8682 35.7628C84.781 35.5416 84.7341 35.3002 84.7341 35.0387C84.7341 34.7772 84.7743 34.5493 84.8615 34.328C84.9486 34.1068 85.0693 33.919 85.2235 33.7581C85.3777 33.5972 85.5655 33.4698 85.78 33.376C85.9946 33.2821 86.2292 33.2352 86.484 33.2352M86.484 32.5647C86.1354 32.5647 85.8068 32.6317 85.5118 32.7658C85.2235 32.8932 84.962 33.0743 84.7475 33.2955C84.5329 33.5235 84.3586 33.7917 84.2446 34.0867C84.1307 34.3817 84.0703 34.7035 84.0703 35.0387C84.0703 35.374 84.1307 35.7159 84.2513 36.0109C84.372 36.3126 84.5463 36.5741 84.7609 36.7954C84.9822 37.0166 85.2436 37.1977 85.5386 37.3183C85.8337 37.4457 86.1555 37.5061 86.4907 37.5061C86.8595 37.5061 87.2014 37.439 87.5031 37.3049C87.8249 37.1641 88.1066 36.9362 88.3278 36.6412L88.71 36.1316L88.2272 35.7226L87.9188 35.4678L87.3891 35.0253L86.96 35.5684C86.8997 35.6489 86.8327 35.7025 86.7522 35.7427C86.6784 35.7763 86.598 35.7964 86.4907 35.7964C86.3968 35.7964 86.3164 35.783 86.2426 35.7494C86.1622 35.7159 86.1018 35.669 86.0415 35.6019C85.9812 35.5349 85.9409 35.4611 85.9007 35.3673C85.8605 35.2667 85.8471 35.1594 85.8471 35.0387C85.8471 34.9315 85.8672 34.8309 85.9007 34.737C85.9342 34.6365 85.9812 34.556 86.0482 34.4889C86.1085 34.4219 86.1756 34.375 86.256 34.3347C86.3231 34.3012 86.4036 34.2878 86.4907 34.2878C86.5578 34.2878 86.6248 34.3012 86.6851 34.3347C86.7321 34.3549 86.7723 34.3884 86.8058 34.4353L87.2014 34.965L87.7378 34.5761L88.0931 34.3213L88.6496 33.919L88.2339 33.376C88.0127 33.0877 87.7378 32.8731 87.4093 32.7457C87.1142 32.6317 86.8058 32.5714 86.4907 32.5714L86.484 32.5647Z" fill="white"/>
<path d="M89.9838 37.1709C89.6754 37.1709 89.3938 37.1173 89.1323 37.01C88.8775 36.9027 88.6495 36.7552 88.4551 36.5608C88.2607 36.3663 88.1132 36.1384 88.0059 35.8769C87.8986 35.6154 87.845 35.3338 87.845 35.0321C87.845 34.7304 87.8986 34.4488 88.0059 34.1873C88.1132 33.9258 88.2607 33.6979 88.4551 33.5034C88.6495 33.309 88.8775 33.1615 89.1323 33.0542C89.3871 32.9469 89.6754 32.8933 89.9838 32.8933C90.2922 32.8933 90.5738 32.9469 90.8353 33.0542C91.09 33.1615 91.318 33.309 91.5124 33.5034C91.7069 33.6979 91.8544 33.9258 91.9617 34.1873C92.0689 34.4488 92.1226 34.7304 92.1226 35.0321C92.1226 35.3338 92.0689 35.6154 91.9617 35.8769C91.8544 36.1384 91.7069 36.3663 91.5124 36.5608C91.318 36.7552 91.0967 36.9027 90.8353 37.01C90.5738 37.1173 90.2922 37.1709 89.9838 37.1709ZM89.9838 33.9392C89.8296 33.9392 89.6955 33.9661 89.5681 34.0197C89.4407 34.0733 89.3401 34.1471 89.2463 34.2477C89.1524 34.3482 89.0853 34.4622 89.0317 34.5896C88.9781 34.7237 88.9512 34.8712 88.9512 35.0254C88.9512 35.1796 88.9781 35.3271 89.0317 35.4612C89.0853 35.5953 89.1524 35.7093 89.2463 35.8099C89.3334 35.9104 89.4407 35.9842 89.5681 36.0378C89.6888 36.0915 89.8296 36.1183 89.9838 36.1183C90.138 36.1183 90.2721 36.0915 90.3995 36.0378C90.5269 35.9842 90.6341 35.9037 90.7213 35.8099C90.8084 35.7093 90.8822 35.5953 90.9358 35.4612C90.9895 35.3271 91.0163 35.1796 91.0163 35.0254C91.0163 34.8712 90.9895 34.7237 90.9358 34.5896C90.8822 34.4555 90.8152 34.3415 90.7213 34.241C90.6341 34.1471 90.5269 34.0733 90.3995 34.013C90.2721 33.9594 90.138 33.9325 89.9838 33.9325V33.9392Z" fill="#EF4136"/>
<path d="M89.9838 33.2286C90.2453 33.2286 90.4867 33.2755 90.7012 33.3627C90.9225 33.4498 91.1102 33.5772 91.2711 33.7381C91.432 33.899 91.5527 34.0868 91.6466 34.308C91.7404 34.5293 91.7807 34.7707 91.7807 35.0254C91.7807 35.2802 91.7337 35.5216 91.6466 35.7428C91.5594 35.9641 91.432 36.1518 91.2711 36.3127C91.1102 36.4737 90.9225 36.601 90.7012 36.6882C90.48 36.7754 90.2453 36.8223 89.9838 36.8223C89.7223 36.8223 89.481 36.7754 89.2664 36.6882C89.0452 36.601 88.8574 36.4737 88.6965 36.3127C88.5356 36.1518 88.4149 35.9641 88.321 35.7428C88.2339 35.5216 88.187 35.2802 88.187 35.0254C88.187 34.7707 88.2339 34.5293 88.321 34.308C88.4082 34.0868 88.5356 33.899 88.6965 33.7381C88.8574 33.5772 89.0452 33.4498 89.2664 33.3627C89.4877 33.2755 89.7223 33.2286 89.9838 33.2286ZM89.9838 36.4602C90.185 36.4602 90.366 36.42 90.5336 36.3463C90.7012 36.2725 90.842 36.1719 90.9627 36.0378C91.0834 35.9105 91.1772 35.7562 91.2443 35.5819C91.3113 35.4076 91.3449 35.2266 91.3449 35.0254C91.3449 34.8243 91.3113 34.6433 91.2443 34.4689C91.1772 34.2946 91.0834 34.1471 90.9627 34.013C90.842 33.8856 90.7012 33.7851 90.5336 33.7046C90.366 33.6309 90.185 33.5906 89.9838 33.5906C89.7827 33.5906 89.6016 33.6309 89.434 33.7046C89.2664 33.7784 89.1256 33.8789 89.0049 34.013C88.8842 34.1404 88.7904 34.2946 88.7233 34.4689C88.6563 34.6433 88.6228 34.8243 88.6228 35.0254C88.6228 35.2266 88.6563 35.4076 88.7233 35.5819C88.7904 35.7562 88.8842 35.9038 89.0049 36.0378C89.1256 36.1652 89.2664 36.2658 89.434 36.3463C89.6016 36.42 89.7827 36.4602 89.9838 36.4602ZM89.9838 32.5581C89.6352 32.5581 89.3066 32.6184 89.0049 32.7458C88.7099 32.8665 88.4417 33.0408 88.2205 33.2688C87.9925 33.4968 87.8182 33.765 87.6975 34.0667C87.5768 34.3684 87.5165 34.6902 87.5165 35.0388C87.5165 35.3875 87.5768 35.7093 87.6975 36.011C87.8182 36.3127 87.9925 36.5809 88.2205 36.8089C88.4417 37.0301 88.7099 37.2045 89.0049 37.3319C89.2999 37.4525 89.6285 37.5196 89.9838 37.5196C90.3392 37.5196 90.661 37.4592 90.9627 37.3319C91.2644 37.2112 91.5259 37.0301 91.7471 36.8089C91.9684 36.5809 92.1427 36.3194 92.2701 36.011C92.3908 35.7093 92.4511 35.3875 92.4511 35.0388C92.4511 34.6902 92.3908 34.3684 92.2701 34.0667C92.1494 33.765 91.9751 33.4968 91.7471 33.2688C91.5259 33.0475 91.2577 32.8732 90.9627 32.7458C90.661 32.6252 90.3325 32.5581 89.9838 32.5581ZM89.9838 35.7898C89.8765 35.7898 89.7894 35.7697 89.7089 35.7361C89.6218 35.6959 89.5547 35.649 89.5011 35.5886C89.4407 35.5216 89.3938 35.4411 89.3536 35.354C89.3133 35.2534 89.2999 35.1528 89.2999 35.0388C89.2999 34.9249 89.32 34.8176 89.3536 34.7237C89.3871 34.6299 89.434 34.5494 89.5011 34.4824C89.5614 34.4153 89.6285 34.3684 89.7089 34.3349C89.7894 34.2946 89.8832 34.2812 89.9905 34.2812C90.0978 34.2812 90.185 34.3013 90.2654 34.3349C90.3526 34.3751 90.4196 34.422 90.48 34.4824C90.5403 34.5494 90.5872 34.6299 90.6275 34.7237C90.661 34.8176 90.6811 34.9249 90.6811 35.0388C90.6811 35.1528 90.661 35.2601 90.6275 35.354C90.5939 35.4478 90.547 35.5216 90.48 35.5886C90.4263 35.649 90.3526 35.6959 90.2721 35.7361C90.1917 35.7697 90.0978 35.7898 89.9972 35.7898H89.9838Z" fill="white"/>
<path d="M95.2872 37.0838V35.4813L94.6033 37.0838H93.9128L93.2289 35.4813V37.0838H92.1494V32.9805H93.3093L94.2614 35.1729L95.2202 32.9805H96.3667V37.0838H95.2872Z" fill="#EF4136"/>
<path d="M96.0315 33.3157V36.7485H95.6225V33.8655H95.6158L94.3821 36.7485H94.134L92.9004 33.8655H92.8937V36.7485H92.4847V33.3157H93.0881L94.2547 36.0043H94.2614L95.4347 33.3157H96.0248M96.6952 32.6453H94.9922L94.8179 33.0475L94.2547 34.3349L93.6982 33.0475L93.5239 32.6453H91.8075V37.419H93.5574V37.1173L93.6848 37.419H94.8179L94.9453 37.1173V37.419H96.6952V32.6453Z" fill="white"/>
</g>
<defs>
<linearGradient id="paint0_linear_4111_5738" x1="10.6565" y1="41.3581" x2="47.1418" y2="40.5798" gradientUnits="userSpaceOnUse">
<stop stop-color="#E54807"/>
<stop offset="0.357545" stop-color="#E54807"/>
<stop offset="1" stop-color="#FFBE00"/>
</linearGradient>
<clipPath id="clip0_4111_5738">
<rect width="135.576" height="47" fill="white"/>
</clipPath>
</defs>
</svg>
