<svg width="40" height="40" viewBox="0 0 40 40" fill="none" xmlns="http://www.w3.org/2000/svg">
<path d="M24.625 27.0718L33.8906 8.00934C33.9522 7.88622 34.0374 7.77644 34.1414 7.68625C34.2454 7.59607 34.3661 7.52725 34.4967 7.48372C34.6273 7.44019 34.7651 7.42281 34.9024 7.43257C35.0397 7.44233 35.1738 7.47903 35.2969 7.54059C35.42 7.60215 35.5298 7.68735 35.62 7.79133C35.7101 7.89532 35.779 8.01605 35.8225 8.14663C35.866 8.27721 35.8834 8.41509 35.8736 8.55239C35.8639 8.68969 35.8272 8.82372 35.7656 8.94684L26.7437 27.3062L24.625 27.0718Z" fill="url(#paint0_linear_1064_1062)"/>
<path d="M18.9842 15.6355C20.8603 14.5115 21.2422 11.6989 19.837 9.35325C18.4318 7.00764 15.7717 6.01731 13.8956 7.14127C12.0194 8.26524 11.6375 11.0779 13.0427 13.4235C14.4479 15.7691 17.108 16.7594 18.9842 15.6355Z" fill="url(#paint1_linear_1064_1062)"/>
<path d="M14.4031 7.56249C15.9656 9.35312 18 12.8531 18.825 15C18.8401 15.0432 18.8399 15.0904 18.8244 15.1335C18.809 15.1766 18.7792 15.2131 18.74 15.2369C18.7009 15.2607 18.6547 15.2703 18.6093 15.2642C18.5639 15.258 18.522 15.2365 18.4906 15.2031C16.9875 13.4625 14.8625 10.0156 14.0187 7.79374C14.0077 7.76587 14.0024 7.73607 14.003 7.70611C14.0037 7.67615 14.0103 7.64661 14.0226 7.61925C14.0348 7.59189 14.0524 7.56724 14.0742 7.54676C14.0961 7.52628 14.1219 7.51038 14.15 7.49999C14.1935 7.4833 14.2411 7.48034 14.2864 7.49151C14.3316 7.50269 14.3724 7.52746 14.4031 7.56249Z" fill="#D8AE7D"/>
<path d="M24.7567 28.4026C26.5517 26.6077 26.1877 23.3335 23.9437 21.0895C21.6997 18.8456 18.4256 18.4816 16.6307 20.2765C14.8357 22.0714 15.1998 25.3456 17.4437 27.5895C19.6877 29.8335 22.9618 30.1975 24.7567 28.4026Z" fill="url(#paint2_linear_1064_1062)"/>
<path d="M15.1709 10.1271C17.1037 8.1943 17.4173 5.37418 15.8713 3.82818C14.3253 2.28218 11.5052 2.59574 9.57237 4.52855C7.63957 6.46135 7.326 9.28148 8.872 10.8275C10.418 12.3735 13.2381 12.0599 15.1709 10.1271Z" fill="url(#paint3_linear_1064_1062)"/>
<path d="M9.15314 10.2282C10.5094 8.28128 13.4094 5.45316 15.2938 4.12816C15.3323 4.10351 15.3782 4.09284 15.4237 4.09791C15.4691 4.10299 15.5115 4.12352 15.5437 4.15606C15.5759 4.1886 15.5959 4.2312 15.6005 4.27674C15.605 4.32228 15.5938 4.368 15.5688 4.40628C14.2469 6.28128 11.4219 9.18441 9.47189 10.5469C9.42831 10.5727 9.37739 10.5833 9.32715 10.5769C9.27692 10.5706 9.23022 10.5477 9.19441 10.5119C9.15861 10.4761 9.13573 10.4294 9.12939 10.3791C9.12305 10.3289 9.1336 10.278 9.15939 10.2344L9.15314 10.2282Z" fill="#D8AE7D"/>
<path d="M12.4531 27.3407C14.6398 27.3407 16.4125 25.1245 16.4125 22.3907C16.4125 19.6569 14.6398 17.4407 12.4531 17.4407C10.2664 17.4407 8.49374 19.6569 8.49374 22.3907C8.49374 25.1245 10.2664 27.3407 12.4531 27.3407Z" fill="url(#paint4_linear_1064_1062)"/>
<path d="M12.2281 26.7188C11.8125 24.3751 11.875 20.3282 12.2594 18.0657C12.2654 18.0181 12.2886 17.9744 12.3245 17.9427C12.3605 17.911 12.4068 17.8936 12.4547 17.8936C12.5026 17.8936 12.5489 17.911 12.5848 17.9427C12.6208 17.9744 12.644 18.0181 12.65 18.0657C13.0437 20.3282 13.0969 24.3782 12.6781 26.7188C12.6692 26.772 12.6417 26.8204 12.6005 26.8553C12.5593 26.8902 12.5071 26.9093 12.4531 26.9093C12.3991 26.9093 12.3469 26.8902 12.3057 26.8553C12.2645 26.8204 12.237 26.772 12.2281 26.7188Z" fill="#D8AE7D"/>
<path d="M30.2961 23.5666C31.8421 22.0206 31.5286 19.2005 29.5958 17.2677C27.663 15.3349 24.8428 15.0213 23.2968 16.5673C21.7508 18.1133 22.0644 20.9334 23.9972 22.8662C25.93 24.799 28.7501 25.1126 30.2961 23.5666Z" fill="url(#paint5_linear_1064_1062)"/>
<path d="M29.7031 23.2844C27.7281 21.9063 24.9031 18.9938 23.6031 17.1438C23.5729 17.1002 23.5612 17.0465 23.5706 16.9944C23.58 16.9422 23.6097 16.8959 23.6531 16.8656C23.6864 16.8419 23.7263 16.8292 23.7672 16.8292C23.8081 16.8292 23.8479 16.8419 23.8813 16.8656C25.7156 18.1563 28.6344 20.975 30.0188 22.9656C30.051 23.0151 30.0632 23.075 30.0527 23.1331C30.0423 23.1912 30.01 23.2431 29.9625 23.2781C29.9245 23.3042 29.8798 23.3187 29.8337 23.3198C29.7877 23.3209 29.7423 23.3086 29.7031 23.2844Z" fill="#D8AE7D"/>
<path d="M24.3156 37.5H15.6844C8.125 37.5 3.75 30.7531 3.75 24.475V24.375C3.75 24.2092 3.81585 24.0503 3.93306 23.9331C4.05027 23.8158 4.20924 23.75 4.375 23.75H35.6562C35.822 23.75 35.981 23.8158 36.0982 23.9331C36.2154 24.0503 36.2812 24.2092 36.2812 24.375V24.475C36.2656 30.7531 31.875 37.5 24.3156 37.5Z" fill="url(#paint6_linear_1064_1062)"/>
<defs>
<linearGradient id="paint0_linear_1064_1062" x1="33.375" y1="20.675" x2="27.2594" y2="14.5625" gradientUnits="userSpaceOnUse">
<stop stop-color="#E0E0E0"/>
<stop offset="0.16" stop-color="#DBDADB"/>
<stop offset="0.37" stop-color="#CCC9CC"/>
<stop offset="0.61" stop-color="#B5ADB5"/>
<stop offset="0.87" stop-color="#948694"/>
<stop offset="1" stop-color="#806F80"/>
</linearGradient>
<linearGradient id="paint1_linear_1064_1062" x1="17.5319" y1="7.03716" x2="15.3514" y2="15.7339" gradientUnits="userSpaceOnUse">
<stop stop-color="#F2E6D6"/>
<stop offset="0.25" stop-color="#F2E3D0"/>
<stop offset="0.58" stop-color="#F2DCBF"/>
<stop offset="0.96" stop-color="#F2D0A3"/>
<stop offset="1" stop-color="#F2CFA0"/>
</linearGradient>
<linearGradient id="paint2_linear_1064_1062" x1="15.5332" y1="24.2823" x2="25.9364" y2="24.2823" gradientUnits="userSpaceOnUse">
<stop stop-color="#FFEAD0"/>
<stop offset="0.22" stop-color="#FEE7CA"/>
<stop offset="0.5" stop-color="#FBDEB9"/>
<stop offset="0.83" stop-color="#F5D09D"/>
<stop offset="1" stop-color="#F2C78C"/>
</linearGradient>
<linearGradient id="paint3_linear_1064_1062" x1="7.88739" y1="7.32745" x2="16.8472" y2="7.32745" gradientUnits="userSpaceOnUse">
<stop stop-color="#F2E6D6"/>
<stop offset="0.25" stop-color="#F2E3D0"/>
<stop offset="0.58" stop-color="#F2DCBF"/>
<stop offset="0.96" stop-color="#F2D0A3"/>
<stop offset="1" stop-color="#F2CFA0"/>
</linearGradient>
<linearGradient id="paint4_linear_1064_1062" x1="9.35794" y1="19.2117" x2="15.6966" y2="25.5504" gradientUnits="userSpaceOnUse">
<stop stop-color="#F2E6D6"/>
<stop offset="0.25" stop-color="#F2E3D0"/>
<stop offset="0.58" stop-color="#F2DCBF"/>
<stop offset="0.96" stop-color="#F2D0A3"/>
<stop offset="1" stop-color="#F2CFA0"/>
</linearGradient>
<linearGradient id="paint5_linear_1064_1062" x1="22.3567" y1="20.009" x2="31.3165" y2="20.009" gradientUnits="userSpaceOnUse">
<stop stop-color="#F2E6D6"/>
<stop offset="0.25" stop-color="#F2E3D0"/>
<stop offset="0.58" stop-color="#F2DCBF"/>
<stop offset="0.96" stop-color="#F2D0A3"/>
<stop offset="1" stop-color="#F2CFA0"/>
</linearGradient>
<linearGradient id="paint6_linear_1064_1062" x1="20" y1="23.75" x2="20" y2="37.5" gradientUnits="userSpaceOnUse">
<stop stop-color="#59B0F8"/>
<stop offset="0.03" stop-color="#AADEF9"/>
<stop offset="0.09" stop-color="#97D0F2"/>
<stop offset="0.16" stop-color="#89C7F1"/>
<stop offset="0.22" stop-color="#77BDEE"/>
<stop offset="1" stop-color="#337BEC"/>
</linearGradient>
</defs>
</svg>
