<svg width="40" height="40" viewBox="0 0 40 40" fill="none" xmlns="http://www.w3.org/2000/svg">
<path fill-rule="evenodd" clip-rule="evenodd" d="M29.0396 34.0864C29.547 33.3459 29.8438 32.4498 29.8438 31.4844C29.8438 28.9387 27.7801 26.875 25.2344 26.875C24.2454 26.875 23.3292 27.1864 22.5785 27.7166L29.0396 34.0864ZM27.9374 35.2184C27.178 35.7691 26.2441 36.0938 25.2344 36.0938C22.6887 36.0938 20.625 34.0301 20.625 31.4844C20.625 30.4982 20.9347 29.5844 21.4622 28.8348L27.9374 35.2184Z" fill="url(#paint0_linear_1064_1067)"/>
<path fill-rule="evenodd" clip-rule="evenodd" d="M30.636 31.7659C30.044 32.4717 29.6875 33.3817 29.6875 34.375C29.6875 36.6187 31.5063 38.4375 33.75 38.4375C34.5637 38.4375 35.3214 38.1983 35.9569 37.7864L30.636 31.7659ZM37.0922 36.6851C37.5464 36.0292 37.8125 35.2332 37.8125 34.375C37.8125 32.1313 35.9937 30.3125 33.75 30.3125C33.0708 30.3125 32.4305 30.4792 31.8679 30.7739L37.0922 36.6851Z" fill="url(#paint1_linear_1064_1067)"/>
<path d="M6.61871 8.05005V4.0813C6.62017 3.58447 6.81818 3.1084 7.1695 2.75708C7.52081 2.40576 7.99688 2.20775 8.49371 2.2063H21.9625C22.4596 2.2067 22.9363 2.40437 23.2878 2.75591C23.6394 3.10746 23.8371 3.58414 23.8375 4.0813V8.05005C23.837 8.21566 23.771 8.37434 23.6539 8.49144C23.5368 8.60855 23.3781 8.67455 23.2125 8.67505H7.24371C7.0781 8.67457 6.91941 8.60857 6.8023 8.49146C6.6852 8.37435 6.61919 8.21566 6.61871 8.05005ZM26.5937 15.5125V14.7938C26.5875 13.8001 26.1896 12.8489 25.4863 12.1468C24.7831 11.4447 23.8312 11.0483 22.8375 11.0438C22.7606 11.0438 22.6845 11.0285 22.6136 10.9989C22.5427 10.9693 22.4784 10.9259 22.4243 10.8712C22.3703 10.8166 22.3276 10.7518 22.2988 10.6806C22.2699 10.6094 22.2555 10.5331 22.2562 10.4563V9.92505C22.0858 9.93839 8.26875 9.92505 8.26875 9.92505V10.4563C8.27017 10.5333 8.25615 10.6098 8.22752 10.6813C8.19889 10.7529 8.15623 10.8179 8.10206 10.8727C8.04788 10.9274 7.98329 10.9708 7.91209 11.0002C7.84089 11.0296 7.76452 11.0444 7.6875 11.0438C5.24868 11.0573 3.68076 13.1706 3.9313 15.5125H26.5937ZM21.1187 35.625C20.2627 34.7763 19.6925 33.6817 19.4875 32.4938H3.93121V33.9188C3.93245 34.9472 4.34197 35.9331 5.06975 36.6597C5.79754 37.3863 6.78405 37.7942 7.81246 37.7938H22.7125C23.3751 37.7963 24.0272 37.6284 24.6062 37.3063C23.287 37.1565 22.0575 36.5639 21.1187 35.625ZM3.93121 31.2438V16.7625H26.5937V25.7813C26.1843 25.6821 25.765 25.6297 25.3438 25.6251C23.8204 25.6151 22.3522 26.1941 21.2457 27.2411C20.1393 28.2882 19.4802 29.7223 19.4062 31.2438H3.93121ZM10.7875 24.625H14.6375V28.475C14.6375 28.6408 14.7033 28.7998 14.8205 28.917C14.9377 29.0342 15.0967 29.1 15.2625 29.1C15.4282 29.1 15.5872 29.0342 15.7044 28.917C15.8216 28.7998 15.8875 28.6408 15.8875 28.475V24.625H19.7375C19.9032 24.625 20.0622 24.5592 20.1794 24.442C20.2966 24.3248 20.3625 24.1658 20.3625 24C20.3625 23.8343 20.2966 23.6753 20.1794 23.5581C20.0622 23.4409 19.9032 23.375 19.7375 23.375H15.8875V19.525C15.885 19.3609 15.8181 19.2043 15.7012 19.0891C15.5842 18.9738 15.4267 18.9092 15.2625 18.9092C15.0983 18.9092 14.9407 18.9738 14.8238 19.089C14.7068 19.2043 14.6399 19.3609 14.6375 19.525V23.375H10.7875C10.6236 23.378 10.4675 23.4451 10.3527 23.562C10.2379 23.6789 10.1735 23.8362 10.1735 24C10.1735 24.1639 10.2379 24.3212 10.3527 24.4381C10.4675 24.555 10.6236 24.6221 10.7875 24.625Z" fill="url(#paint2_linear_1064_1067)"/>
<defs>
<linearGradient id="paint0_linear_1064_1067" x1="25.2344" y1="26.875" x2="25.2344" y2="36.0938" gradientUnits="userSpaceOnUse">
<stop stop-color="#F3D6B1"/>
<stop offset="1" stop-color="#F3D9B6"/>
</linearGradient>
<linearGradient id="paint1_linear_1064_1067" x1="33.75" y1="30.3125" x2="33.75" y2="38.4375" gradientUnits="userSpaceOnUse">
<stop stop-color="#F3D6B1"/>
<stop offset="1" stop-color="#F3D9B6"/>
</linearGradient>
<linearGradient id="paint2_linear_1064_1067" x1="3.90496" y1="20.2694" x2="37.7331" y2="20.2694" gradientUnits="userSpaceOnUse">
<stop stop-color="#6AC0FC"/>
<stop offset="1" stop-color="#367EEC"/>
</linearGradient>
</defs>
</svg>
